
<svg xmlns="http://www.w3.org/2000/svg"
     xmlns:xlink="http://www.w3.org/1999/xlink" version="1.1" width="785"
     height="219">
    <defs/>
    <g transform=" scale(0.85) translate(-49.7,4.3)">
        <rect x="407.4" y="185.4" width="1.2" height="1.2" fill="#000000"
              stroke="none" pointer-events="none"/>
        <rect x="407.4" y="155.4" width="1.2" height="1.2" fill="#000000"
              stroke="none" pointer-events="none"/>
        <path d="M 408 175.8 L 408 185.4" fill="none" stroke="#000000"
              stroke-width="1.2" stroke-linecap="square" stroke-miterlimit="10"
              pointer-events="none"/>
        <path d="M 408 156.6 L 408 166.2" fill="none" stroke="#000000"
              stroke-width="1.2" stroke-linecap="square" stroke-miterlimit="10"
              pointer-events="none"/>
        <rect x="401.52" y="166.82" width="13.2" height="3" fill="#000000"
              stroke="#000000" stroke-width="1.2" pointer-events="none"/>
        <rect x="401.52" y="172.44" width="13.2" height="3" fill="#000000"
              stroke="#000000" stroke-width="1.2" pointer-events="none"/>
        <rect x="414" y="180" width="16.2" height="7.8" fill-opacity="0"
              fill="#dae2f2" stroke="none" pointer-events="none"/>
        <g fill="#000000" font-family="Arial,Helvetica" font-weight="bold"
           text-anchor="middle" font-size="7.199999999999999px">
            <text x="422.1" y="186.3">
                C208
            </text>
        </g>
        <rect x="407.4" y="185.4" width="1.2" height="1.2" fill="#000000"
              stroke="none" pointer-events="none"/>
        <path d="M 401.4 198.6 C 414.61 198.6 414.61 198.6 414.61 198.6"
              fill="none" stroke="#000000" stroke-width="1.2"
              stroke-linecap="round" stroke-miterlimit="10"
              pointer-events="none"/>
        <path d="M 403.8 202.2 C 409.54 202.2 412.2 202.2 412.2 202.2"
              fill="none" stroke="#000000" stroke-width="1.2"
              stroke-linecap="round" stroke-miterlimit="10"
              pointer-events="none"/>
        <path d="M 406.2 205.8 C 408.07 205.8 409.8 205.8 409.8 205.8"
              fill="none" stroke="#000000" stroke-width="1.2"
              stroke-linecap="round" stroke-miterlimit="10"
              pointer-events="none"/>
        <path d="M 408 186.6 L 408 197.4" fill="#000000" stroke="#000000"
              stroke-width="1.2" stroke-linecap="square" stroke-miterlimit="10"
              pointer-events="none"/>
        <rect x="528" y="120" width="60" height="60" fill="#6ccefb"
              stroke="#000" stroke-width="1.8" pointer-events="none"/>
        <path d="M 588 128.4 L 588 128.4" fill="none" stroke="#000"
              stroke-width="1.2" stroke-miterlimit="10" pointer-events="none"/>
        <path d="M 588 136.8 L 588 136.8" fill="none" stroke="#000"
              stroke-width="1.2" stroke-miterlimit="10" pointer-events="none"/>
        <path d="M 588 145.2 L 588 145.2" fill="none" stroke="#000"
              stroke-width="1.2" stroke-miterlimit="10" pointer-events="none"/>
        <path d="M 588 153.6 L 588 153.6" fill="none" stroke="#000"
              stroke-width="1.2" stroke-miterlimit="10" pointer-events="none"/>
        <path d="M 588 162 L 588 162" fill="none" stroke="#000"
              stroke-width="1.2" stroke-miterlimit="10" pointer-events="none"/>
        <path d="M 588 170.4 L 588 170.4" fill="none" stroke="#000"
              stroke-width="1.2" stroke-miterlimit="10" pointer-events="none"/>
        <path d="M 579.6 180 L 579.6 180" fill="none" stroke="#000"
              stroke-width="1.2" stroke-miterlimit="10" pointer-events="none"/>
        <path d="M 571.2 180 L 571.2 180" fill="none" stroke="#000"
              stroke-width="1.2" stroke-miterlimit="10" pointer-events="none"/>
        <path d="M 562.8 180 L 562.8 180" fill="none" stroke="#000"
              stroke-width="1.2" stroke-miterlimit="10" pointer-events="none"/>
        <path d="M 554.4 180 L 554.4 180" fill="none" stroke="#000"
              stroke-width="1.2" stroke-miterlimit="10" pointer-events="none"/>
        <path d="M 546 180 L 546 180" fill="none" stroke="#000"
              stroke-width="1.2" stroke-miterlimit="10" pointer-events="none"/>
        <path d="M 537.6 180 L 537.6 180" fill="none" stroke="#000"
              stroke-width="1.2" stroke-miterlimit="10" pointer-events="none"/>
        <path d="M 528 171.6 L 528 171.6" fill="none" stroke="#000"
              stroke-width="1.2" stroke-miterlimit="10" pointer-events="none"/>
        <path d="M 528 163.2 L 528 163.2" fill="none" stroke="#000"
              stroke-width="1.2" stroke-miterlimit="10" pointer-events="none"/>
        <path d="M 528 154.8 L 528 154.8" fill="none" stroke="#000"
              stroke-width="1.2" stroke-miterlimit="10" pointer-events="none"/>
        <path d="M 528 146.4 L 528 146.4" fill="none" stroke="#000"
              stroke-width="1.2" stroke-miterlimit="10" pointer-events="none"/>
        <path d="M 528 138 L 528 138" fill="none" stroke="#000"
              stroke-width="1.2" stroke-miterlimit="10" pointer-events="none"/>
        <path d="M 528 129.6 L 528 129.6" fill="none" stroke="#000"
              stroke-width="1.2" stroke-miterlimit="10" pointer-events="none"/>
        <path d="M 536.4 120 L 536.4 120" fill="none" stroke="#000"
              stroke-width="1.2" stroke-miterlimit="10" pointer-events="none"/>
        <path d="M 544.8 120 L 544.8 120" fill="none" stroke="#000"
              stroke-width="1.2" stroke-miterlimit="10" pointer-events="none"/>
        <path d="M 553.2 120 L 553.2 120" fill="none" stroke="#000"
              stroke-width="1.2" stroke-miterlimit="10" pointer-events="none"/>
        <path d="M 561.6 120 L 561.6 120" fill="none" stroke="#000"
              stroke-width="1.2" stroke-miterlimit="10" pointer-events="none"/>
        <path d="M 570 120 L 570 120" fill="none" stroke="#000"
              stroke-width="1.2" stroke-miterlimit="10" pointer-events="none"/>
        <path d="M 578.4 120 L 578.4 120" fill="none" stroke="#000"
              stroke-width="1.2" stroke-miterlimit="10" pointer-events="none"/>
        <rect x="552" y="186" width="13.2" height="8.4" fill-opacity="0"
              fill="#dae2f2" stroke="none" pointer-events="none"/>
        <g fill="#000000" font-family="Arial,Helvetica" font-weight="bold"
           text-anchor="middle" font-size="7.199999999999999px">
            <text x="558.6" y="192.6">
                U56
            </text>
        </g>
        <rect x="546" y="144" width="23.4" height="7.8" fill-opacity="0"
              fill="#dae2f2" stroke="none" pointer-events="none"/>
        <g fill="#000000" font-family="Arial,Helvetica" font-weight="bold"
           text-anchor="middle" font-size="7.199999999999999px">
            <text x="557.7" y="150.3">
                Combel
            </text>
        </g>
        <rect x="437.4" y="131.4" width="1.2" height="1.2" fill="#000000"
              stroke="none"
              transform="translate(0,150)scale(1,-1)translate(0,-150)rotate(-270,438,150)"
              pointer-events="none"/>
        <rect x="437.4" y="167.4" width="1.2" height="1.2" fill="#000000"
              stroke="none"
              transform="translate(0,150)scale(1,-1)translate(0,-150)rotate(-270,438,150)"
              pointer-events="none"/>
        <path d="M 438 132.6 L 438 138.6" fill="#000000" stroke="#000000"
              stroke-width="1.2" stroke-linecap="square" stroke-miterlimit="10"
              transform="translate(0,150)scale(1,-1)translate(0,-150)rotate(-270,438,150)"
              pointer-events="none"/>
        <path d="M 438 161.4 L 438 167.4" fill="#000000" stroke="#000000"
              stroke-width="1.2" stroke-linecap="square" stroke-miterlimit="10"
              transform="translate(0,150)scale(1,-1)translate(0,-150)rotate(-270,438,150)"
              pointer-events="none"/>
        <path d="M 433.8 139.2 C 441.84 139.09 442.2 139.2 442.2 139.2 L 442.2 160.8 L 433.8 160.8 Z"
              fill="#ffffff" stroke="#000000" stroke-width="1.2"
              stroke-linejoin="round" stroke-linecap="round"
              stroke-miterlimit="10"
              transform="translate(0,150)scale(1,-1)translate(0,-150)rotate(-270,438,150)"
              pointer-events="none"/>
        <rect x="432" y="156" width="12.6" height="7.8" fill-opacity="0"
              fill="#dae2f2" stroke="none" pointer-events="none"/>
        <g fill="#000000" font-family="Arial,Helvetica" font-weight="bold"
           text-anchor="middle" font-size="7.199999999999999px">
            <text x="438.3" y="162.3">
                R21
            </text>
        </g>
        <path d="M 528 150 L 458.68 150" fill="none" stroke="#000000"
              stroke-width="1.2" stroke-miterlimit="10" pointer-events="none"/>
        <path d="M 460.94 148.2 L 457.34 150 L 460.94 151.8" fill="none"
              stroke="#000000" stroke-width="1.2" stroke-miterlimit="10"
              pointer-events="none"/>
        <g fill="#000000" font-family="Arial,Helvetica" text-anchor="middle"
           font-size="6.6px">
            <rect fill="#FFFFFF" stroke="none" x="471" y="140" width="55"
                  height="9" stroke-width="0"/>
            <text x="498" y="146.1">
                #191 (CPUCLKO)
            </text>
        </g>
        <rect x="347.4" y="161.4" width="1.2" height="1.2" fill="#000000"
              stroke="none"
              transform="translate(0,180)scale(1,-1)translate(0,-180)rotate(-180,348,180)"
              pointer-events="none"/>
        <rect x="347.4" y="197.4" width="1.2" height="1.2" fill="#000000"
              stroke="none"
              transform="translate(0,180)scale(1,-1)translate(0,-180)rotate(-180,348,180)"
              pointer-events="none"/>
        <path d="M 348 162.6 L 348 168.6" fill="#000000" stroke="#000000"
              stroke-width="1.2" stroke-linecap="square" stroke-miterlimit="10"
              transform="translate(0,180)scale(1,-1)translate(0,-180)rotate(-180,348,180)"
              pointer-events="none"/>
        <path d="M 348 191.4 L 348 197.4" fill="#000000" stroke="#000000"
              stroke-width="1.2" stroke-linecap="square" stroke-miterlimit="10"
              transform="translate(0,180)scale(1,-1)translate(0,-180)rotate(-180,348,180)"
              pointer-events="none"/>
        <path d="M 343.8 169.2 C 351.84 169.09 352.2 169.2 352.2 169.2 L 352.2 190.8 L 343.8 190.8 Z"
              fill="#ffffff" stroke="#000000" stroke-width="1.2"
              stroke-linejoin="round" stroke-linecap="round"
              stroke-miterlimit="10"
              transform="translate(0,180)scale(1,-1)translate(0,-180)rotate(-180,348,180)"
              pointer-events="none"/>
        <rect x="354" y="192" width="16.2" height="7.8" fill-opacity="0"
              fill="#dae2f2" stroke="none" pointer-events="none"/>
        <g fill="#000000" font-family="Arial,Helvetica" font-weight="bold"
           text-anchor="middle" font-size="7.199999999999999px">
            <text x="362.1" y="198.3">
                R217
            </text>
        </g>
        <rect x="323.4" y="203.4" width="1.2" height="1.2" fill="#000000"
              stroke="none"
              transform="translate(0,222)scale(1,-1)translate(0,-222)rotate(-180,324,222)"
              pointer-events="none"/>
        <rect x="323.4" y="239.4" width="1.2" height="1.2" fill="#000000"
              stroke="none"
              transform="translate(0,222)scale(1,-1)translate(0,-222)rotate(-180,324,222)"
              pointer-events="none"/>
        <path d="M 324 204.6 L 324 210.6" fill="#000000" stroke="#000000"
              stroke-width="1.2" stroke-linecap="square" stroke-miterlimit="10"
              transform="translate(0,222)scale(1,-1)translate(0,-222)rotate(-180,324,222)"
              pointer-events="none"/>
        <path d="M 324 233.4 L 324 239.4" fill="#000000" stroke="#000000"
              stroke-width="1.2" stroke-linecap="square" stroke-miterlimit="10"
              transform="translate(0,222)scale(1,-1)translate(0,-222)rotate(-180,324,222)"
              pointer-events="none"/>
        <path d="M 319.8 211.2 C 327.84 211.09 328.2 211.2 328.2 211.2 L 328.2 232.8 L 319.8 232.8 Z"
              fill="#ffffff" stroke="#000000" stroke-width="1.2"
              stroke-linejoin="round" stroke-linecap="round"
              stroke-miterlimit="10"
              transform="translate(0,222)scale(1,-1)translate(0,-222)rotate(-180,324,222)"
              pointer-events="none"/>
        <rect x="330" y="228" width="16.2" height="7.8" fill-opacity="0"
              fill="#dae2f2" stroke="none" pointer-events="none"/>
        <g fill="#000000" font-family="Arial,Helvetica" font-weight="bold"
           text-anchor="middle" font-size="7.199999999999999px">
            <text x="338.1" y="234.3">
                R222
            </text>
        </g>
        <path d="M 420 150 L 348 150 L 348 162" fill="none" stroke="#000000"
              stroke-width="1.2" stroke-miterlimit="10" pointer-events="none"/>
        <path d="M 408 156 L 408 150 L 408 151.2" fill="none" stroke="#000000"
              stroke-width="1.2" stroke-miterlimit="10" pointer-events="none"/>
        <ellipse cx="408" cy="150" rx="1.2" ry="1.2" fill="#000000"
                 stroke="#000000" stroke-width="1.2" pointer-events="none"/>
        <rect x="251.4" y="203.4" width="1.2" height="1.2" fill="#000000"
              stroke="none"
              transform="translate(0,222)scale(1,-1)translate(0,-222)rotate(-180,252,222)"
              pointer-events="none"/>
        <rect x="251.4" y="239.4" width="1.2" height="1.2" fill="#000000"
              stroke="none"
              transform="translate(0,222)scale(1,-1)translate(0,-222)rotate(-180,252,222)"
              pointer-events="none"/>
        <path d="M 252 204.6 L 252 210.6" fill="#000000" stroke="#000000"
              stroke-width="1.2" stroke-linecap="square" stroke-miterlimit="10"
              transform="translate(0,222)scale(1,-1)translate(0,-222)rotate(-180,252,222)"
              pointer-events="none"/>
        <path d="M 252 233.4 L 252 239.4" fill="#000000" stroke="#000000"
              stroke-width="1.2" stroke-linecap="square" stroke-miterlimit="10"
              transform="translate(0,222)scale(1,-1)translate(0,-222)rotate(-180,252,222)"
              pointer-events="none"/>
        <path d="M 247.8 211.2 C 255.84 211.09 256.2 211.2 256.2 211.2 L 256.2 232.8 L 247.8 232.8 Z"
              fill="#ffffff" stroke="#000000" stroke-width="1.2"
              stroke-linejoin="round" stroke-linecap="round"
              stroke-miterlimit="10"
              transform="translate(0,222)scale(1,-1)translate(0,-222)rotate(-180,252,222)"
              pointer-events="none"/>
        <rect x="258" y="228" width="16.2" height="7.8" fill-opacity="0"
              fill="#dae2f2" stroke="none" pointer-events="none"/>
        <g fill="#000000" font-family="Arial,Helvetica" font-weight="bold"
           text-anchor="middle" font-size="7.199999999999999px">
            <text x="266.1" y="234.3">
                R216
            </text>
        </g>
        <rect x="287.4" y="203.4" width="1.2" height="1.2" fill="#000000"
              stroke="none"
              transform="translate(0,222)scale(1,-1)translate(0,-222)rotate(-180,288,222)"
              pointer-events="none"/>
        <rect x="287.4" y="239.4" width="1.2" height="1.2" fill="#000000"
              stroke="none"
              transform="translate(0,222)scale(1,-1)translate(0,-222)rotate(-180,288,222)"
              pointer-events="none"/>
        <path d="M 288 204.6 L 288 210.6" fill="#000000" stroke="#000000"
              stroke-width="1.2" stroke-linecap="square" stroke-miterlimit="10"
              transform="translate(0,222)scale(1,-1)translate(0,-222)rotate(-180,288,222)"
              pointer-events="none"/>
        <path d="M 288 233.4 L 288 239.4" fill="#000000" stroke="#000000"
              stroke-width="1.2" stroke-linecap="square" stroke-miterlimit="10"
              transform="translate(0,222)scale(1,-1)translate(0,-222)rotate(-180,288,222)"
              pointer-events="none"/>
        <path d="M 283.8 211.2 C 291.84 211.09 292.2 211.2 292.2 211.2 L 292.2 232.8 L 283.8 232.8 Z"
              fill="#ffffff" stroke="#000000" stroke-width="1.2"
              stroke-linejoin="round" stroke-linecap="round"
              stroke-miterlimit="10"
              transform="translate(0,222)scale(1,-1)translate(0,-222)rotate(-180,288,222)"
              pointer-events="none"/>
        <rect x="294" y="228" width="16.2" height="7.8" fill-opacity="0"
              fill="#dae2f2" stroke="none" pointer-events="none"/>
        <g fill="#000000" font-family="Arial,Helvetica" font-weight="bold"
           text-anchor="middle" font-size="7.199999999999999px">
            <text x="302.1" y="234.3">
                R221
            </text>
        </g>
        <rect x="150" y="90" width="102" height="12" fill="#6ccefb"
              stroke="#000" pointer-events="none"/>
        <path d="M 252 91.68 L 252 91.68" fill="none" stroke="#000"
              stroke-miterlimit="10" pointer-events="none"/>
        <path d="M 252 93.36 L 252 93.36" fill="none" stroke="#000"
              stroke-miterlimit="10" pointer-events="none"/>
        <path d="M 252 95.04 L 252 95.04" fill="none" stroke="#000"
              stroke-miterlimit="10" pointer-events="none"/>
        <path d="M 252 96.72 L 252 96.72" fill="none" stroke="#000"
              stroke-miterlimit="10" pointer-events="none"/>
        <path d="M 252 98.4 L 252 98.4" fill="none" stroke="#000"
              stroke-miterlimit="10" pointer-events="none"/>
        <path d="M 252 100.08 L 252 100.08" fill="none" stroke="#000"
              stroke-miterlimit="10" pointer-events="none"/>
        <path d="M 237.72 102 L 237.72 102" fill="none" stroke="#000"
              stroke-miterlimit="10" pointer-events="none"/>
        <path d="M 223.44 102 L 223.44 102" fill="none" stroke="#000"
              stroke-miterlimit="10" pointer-events="none"/>
        <path d="M 209.16 102 L 209.16 102" fill="none" stroke="#000"
              stroke-miterlimit="10" pointer-events="none"/>
        <path d="M 194.88 102 L 194.88 102" fill="none" stroke="#000"
              stroke-miterlimit="10" pointer-events="none"/>
        <path d="M 180.6 102 L 180.6 102" fill="none" stroke="#000"
              stroke-miterlimit="10" pointer-events="none"/>
        <path d="M 166.32 102 L 166.32 102" fill="none" stroke="#000"
              stroke-miterlimit="10" pointer-events="none"/>
        <path d="M 150 100.32 L 150 100.32" fill="none" stroke="#000"
              stroke-miterlimit="10" pointer-events="none"/>
        <path d="M 150 98.64 L 150 98.64" fill="none" stroke="#000"
              stroke-miterlimit="10" pointer-events="none"/>
        <path d="M 150 96.96 L 150 96.96" fill="none" stroke="#000"
              stroke-miterlimit="10" pointer-events="none"/>
        <path d="M 150 95.28 L 150 95.28" fill="none" stroke="#000"
              stroke-miterlimit="10" pointer-events="none"/>
        <path d="M 150 93.6 L 150 93.6" fill="none" stroke="#000"
              stroke-miterlimit="10" pointer-events="none"/>
        <path d="M 150 91.92 L 150 91.92" fill="none" stroke="#000"
              stroke-miterlimit="10" pointer-events="none"/>
        <path d="M 164.28 90 L 164.28 90" fill="none" stroke="#000"
              stroke-miterlimit="10" pointer-events="none"/>
        <path d="M 178.56 90 L 178.56 90" fill="none" stroke="#000"
              stroke-miterlimit="10" pointer-events="none"/>
        <path d="M 192.84 90 L 192.84 90" fill="none" stroke="#000"
              stroke-miterlimit="10" pointer-events="none"/>
        <path d="M 207.12 90 L 207.12 90" fill="none" stroke="#000"
              stroke-miterlimit="10" pointer-events="none"/>
        <path d="M 221.4 90 L 221.4 90" fill="none" stroke="#000"
              stroke-miterlimit="10" pointer-events="none"/>
        <path d="M 235.68 90 L 235.68 90" fill="none" stroke="#000"
              stroke-miterlimit="10" pointer-events="none"/>
        <rect x="192" y="108" width="11.4" height="8.4" fill-opacity="0"
              fill="#dae2f2" stroke="none" pointer-events="none"/>
        <g fill="#000000" font-family="Arial,Helvetica" font-weight="bold"
           text-anchor="middle" font-size="7.199999999999999px">
            <text x="197.7" y="114.6">
                J16
            </text>
        </g>
        <rect x="180" y="90" width="44.4" height="7.8" fill-opacity="0"
              fill="#dae2f2" stroke="none" pointer-events="none"/>
        <g fill="#000000" font-family="Arial,Helvetica" font-weight="bold"
           text-anchor="middle" font-size="7.199999999999999px">
            <text x="202.2" y="96.3">
                Expansion slot
            </text>
        </g>
        <path d="M 252 204 L 252 162 Q 252 156 246 156 L 219 156 Q 213 156 213 150 L 213 104.68"
              fill="none" stroke="#000000" stroke-width="1.2"
              stroke-miterlimit="10" pointer-events="none"/>
        <path d="M 214.8 106.94 L 213 103.34 L 211.2 106.94" fill="none"
              stroke="#000000" stroke-width="1.2" stroke-miterlimit="10"
              pointer-events="none"/>
        <g fill="#000000" font-family="Arial,Helvetica" text-anchor="middle"
           font-size="6.6px">
            <rect fill="#FFFFFF" stroke="none" x="221" y="104" width="51"
                  height="9" stroke-width="0"/>
            <text x="246.6" y="110.1">
                #23 (CPUCLKC)
            </text>
        </g>
        <rect x="54" y="168" width="66" height="12" fill="#6ccefb" stroke="#000"
              pointer-events="none"/>
        <path d="M 120 169.68 L 120 169.68" fill="none" stroke="#000"
              stroke-miterlimit="10" pointer-events="none"/>
        <path d="M 120 171.36 L 120 171.36" fill="none" stroke="#000"
              stroke-miterlimit="10" pointer-events="none"/>
        <path d="M 120 173.04 L 120 173.04" fill="none" stroke="#000"
              stroke-miterlimit="10" pointer-events="none"/>
        <path d="M 120 174.72 L 120 174.72" fill="none" stroke="#000"
              stroke-miterlimit="10" pointer-events="none"/>
        <path d="M 120 176.4 L 120 176.4" fill="none" stroke="#000"
              stroke-miterlimit="10" pointer-events="none"/>
        <path d="M 120 178.08 L 120 178.08" fill="none" stroke="#000"
              stroke-miterlimit="10" pointer-events="none"/>
        <path d="M 110.76 180 L 110.76 180" fill="none" stroke="#000"
              stroke-miterlimit="10" pointer-events="none"/>
        <path d="M 101.52 180 L 101.52 180" fill="none" stroke="#000"
              stroke-miterlimit="10" pointer-events="none"/>
        <path d="M 92.28 180 L 92.28 180" fill="none" stroke="#000"
              stroke-miterlimit="10" pointer-events="none"/>
        <path d="M 83.04 180 L 83.04 180" fill="none" stroke="#000"
              stroke-miterlimit="10" pointer-events="none"/>
        <path d="M 73.8 180 L 73.8 180" fill="none" stroke="#000"
              stroke-miterlimit="10" pointer-events="none"/>
        <path d="M 64.56 180 L 64.56 180" fill="none" stroke="#000"
              stroke-miterlimit="10" pointer-events="none"/>
        <path d="M 54 178.32 L 54 178.32" fill="none" stroke="#000"
              stroke-miterlimit="10" pointer-events="none"/>
        <path d="M 54 176.64 L 54 176.64" fill="none" stroke="#000"
              stroke-miterlimit="10" pointer-events="none"/>
        <path d="M 54 174.96 L 54 174.96" fill="none" stroke="#000"
              stroke-miterlimit="10" pointer-events="none"/>
        <path d="M 54 173.28 L 54 173.28" fill="none" stroke="#000"
              stroke-miterlimit="10" pointer-events="none"/>
        <path d="M 54 171.6 L 54 171.6" fill="none" stroke="#000"
              stroke-miterlimit="10" pointer-events="none"/>
        <path d="M 54 169.92 L 54 169.92" fill="none" stroke="#000"
              stroke-miterlimit="10" pointer-events="none"/>
        <path d="M 63.24 168 L 63.24 168" fill="none" stroke="#000"
              stroke-miterlimit="10" pointer-events="none"/>
        <path d="M 72.48 168 L 72.48 168" fill="none" stroke="#000"
              stroke-miterlimit="10" pointer-events="none"/>
        <path d="M 81.72 168 L 81.72 168" fill="none" stroke="#000"
              stroke-miterlimit="10" pointer-events="none"/>
        <path d="M 90.96 168 L 90.96 168" fill="none" stroke="#000"
              stroke-miterlimit="10" pointer-events="none"/>
        <path d="M 100.2 168 L 100.2 168" fill="none" stroke="#000"
              stroke-miterlimit="10" pointer-events="none"/>
        <path d="M 109.44 168 L 109.44 168" fill="none" stroke="#000"
              stroke-miterlimit="10" pointer-events="none"/>
        <rect x="78" y="186" width="10.8" height="7.8" fill-opacity="0"
              fill="#dae2f2" stroke="none" pointer-events="none"/>
        <g fill="#000000" font-family="Arial,Helvetica" font-weight="bold"
           text-anchor="middle" font-size="7.199999999999999px">
            <text x="83.4" y="192.3">
                J20
            </text>
        </g>
        <rect x="66" y="168" width="44.4" height="7.8" fill-opacity="0"
              fill="#dae2f2" stroke="none" pointer-events="none"/>
        <g fill="#000000" font-family="Arial,Helvetica" font-weight="bold"
           text-anchor="middle" font-size="7.199999999999999px">
            <text x="88.2" y="174.3">
                Expansion slot
            </text>
        </g>
        <rect x="180" y="0" width="60" height="60" fill="#6ccefb" stroke="#000"
              stroke-width="1.8" pointer-events="none"/>
        <path d="M 240 8.4 L 240 8.4" fill="none" stroke="#000"
              stroke-width="1.2" stroke-miterlimit="10" pointer-events="none"/>
        <path d="M 240 16.8 L 240 16.8" fill="none" stroke="#000"
              stroke-width="1.2" stroke-miterlimit="10" pointer-events="none"/>
        <path d="M 240 25.2 L 240 25.2" fill="none" stroke="#000"
              stroke-width="1.2" stroke-miterlimit="10" pointer-events="none"/>
        <path d="M 240 33.6 L 240 33.6" fill="none" stroke="#000"
              stroke-width="1.2" stroke-miterlimit="10" pointer-events="none"/>
        <path d="M 240 42 L 240 42" fill="none" stroke="#000" stroke-width="1.2"
              stroke-miterlimit="10" pointer-events="none"/>
        <path d="M 240 50.4 L 240 50.4" fill="none" stroke="#000"
              stroke-width="1.2" stroke-miterlimit="10" pointer-events="none"/>
        <path d="M 231.6 60 L 231.6 60" fill="none" stroke="#000"
              stroke-width="1.2" stroke-miterlimit="10" pointer-events="none"/>
        <path d="M 223.2 60 L 223.2 60" fill="none" stroke="#000"
              stroke-width="1.2" stroke-miterlimit="10" pointer-events="none"/>
        <path d="M 214.8 60 L 214.8 60" fill="none" stroke="#000"
              stroke-width="1.2" stroke-miterlimit="10" pointer-events="none"/>
        <path d="M 206.4 60 L 206.4 60" fill="none" stroke="#000"
              stroke-width="1.2" stroke-miterlimit="10" pointer-events="none"/>
        <path d="M 198 60 L 198 60" fill="none" stroke="#000" stroke-width="1.2"
              stroke-miterlimit="10" pointer-events="none"/>
        <path d="M 189.6 60 L 189.6 60" fill="none" stroke="#000"
              stroke-width="1.2" stroke-miterlimit="10" pointer-events="none"/>
        <path d="M 180 51.6 L 180 51.6" fill="none" stroke="#000"
              stroke-width="1.2" stroke-miterlimit="10" pointer-events="none"/>
        <path d="M 180 43.2 L 180 43.2" fill="none" stroke="#000"
              stroke-width="1.2" stroke-miterlimit="10" pointer-events="none"/>
        <path d="M 180 34.8 L 180 34.8" fill="none" stroke="#000"
              stroke-width="1.2" stroke-miterlimit="10" pointer-events="none"/>
        <path d="M 180 26.4 L 180 26.4" fill="none" stroke="#000"
              stroke-width="1.2" stroke-miterlimit="10" pointer-events="none"/>
        <path d="M 180 18 L 180 18" fill="none" stroke="#000" stroke-width="1.2"
              stroke-miterlimit="10" pointer-events="none"/>
        <path d="M 180 9.6 L 180 9.6" fill="none" stroke="#000"
              stroke-width="1.2" stroke-miterlimit="10" pointer-events="none"/>
        <path d="M 188.4 0 L 188.4 0" fill="none" stroke="#000"
              stroke-width="1.2" stroke-miterlimit="10" pointer-events="none"/>
        <path d="M 196.8 0 L 196.8 0" fill="none" stroke="#000"
              stroke-width="1.2" stroke-miterlimit="10" pointer-events="none"/>
        <path d="M 205.2 0 L 205.2 0" fill="none" stroke="#000"
              stroke-width="1.2" stroke-miterlimit="10" pointer-events="none"/>
        <path d="M 213.6 0 L 213.6 0" fill="none" stroke="#000"
              stroke-width="1.2" stroke-miterlimit="10" pointer-events="none"/>
        <path d="M 222 0 L 222 0" fill="none" stroke="#000" stroke-width="1.2"
              stroke-miterlimit="10" pointer-events="none"/>
        <path d="M 230.4 0 L 230.4 0" fill="none" stroke="#000"
              stroke-width="1.2" stroke-miterlimit="10" pointer-events="none"/>
        <rect x="204" y="66" width="12.6" height="7.8" fill-opacity="0"
              fill="#dae2f2" stroke="none" pointer-events="none"/>
        <g fill="#000000" font-family="Arial,Helvetica" font-weight="bold"
           text-anchor="middle" font-size="7.199999999999999px">
            <text x="210.3" y="72.3">
                U33
            </text>
        </g>
        <rect x="204" y="24" width="13.8" height="7.8" fill-opacity="0"
              fill="#dae2f2" stroke="none" pointer-events="none"/>
        <g fill="#000000" font-family="Arial,Helvetica" font-weight="bold"
           text-anchor="middle" font-size="7.199999999999999px">
            <text x="210.9" y="30.3">
                FPU
            </text>
        </g>
        <rect x="810" y="60" width="60" height="60" fill="#6ccefb" stroke="#000"
              stroke-width="1.8" pointer-events="none"/>
        <path d="M 870 68.4 L 870 68.4" fill="none" stroke="#000"
              stroke-width="1.2" stroke-miterlimit="10" pointer-events="none"/>
        <path d="M 870 76.8 L 870 76.8" fill="none" stroke="#000"
              stroke-width="1.2" stroke-miterlimit="10" pointer-events="none"/>
        <path d="M 870 85.2 L 870 85.2" fill="none" stroke="#000"
              stroke-width="1.2" stroke-miterlimit="10" pointer-events="none"/>
        <path d="M 870 93.6 L 870 93.6" fill="none" stroke="#000"
              stroke-width="1.2" stroke-miterlimit="10" pointer-events="none"/>
        <path d="M 870 102 L 870 102" fill="none" stroke="#000"
              stroke-width="1.2" stroke-miterlimit="10" pointer-events="none"/>
        <path d="M 870 110.4 L 870 110.4" fill="none" stroke="#000"
              stroke-width="1.2" stroke-miterlimit="10" pointer-events="none"/>
        <path d="M 861.6 120 L 861.6 120" fill="none" stroke="#000"
              stroke-width="1.2" stroke-miterlimit="10" pointer-events="none"/>
        <path d="M 853.2 120 L 853.2 120" fill="none" stroke="#000"
              stroke-width="1.2" stroke-miterlimit="10" pointer-events="none"/>
        <path d="M 844.8 120 L 844.8 120" fill="none" stroke="#000"
              stroke-width="1.2" stroke-miterlimit="10" pointer-events="none"/>
        <path d="M 836.4 120 L 836.4 120" fill="none" stroke="#000"
              stroke-width="1.2" stroke-miterlimit="10" pointer-events="none"/>
        <path d="M 828 120 L 828 120" fill="none" stroke="#000"
              stroke-width="1.2" stroke-miterlimit="10" pointer-events="none"/>
        <path d="M 819.6 120 L 819.6 120" fill="none" stroke="#000"
              stroke-width="1.2" stroke-miterlimit="10" pointer-events="none"/>
        <path d="M 810 111.6 L 810 111.6" fill="none" stroke="#000"
              stroke-width="1.2" stroke-miterlimit="10" pointer-events="none"/>
        <path d="M 810 103.2 L 810 103.2" fill="none" stroke="#000"
              stroke-width="1.2" stroke-miterlimit="10" pointer-events="none"/>
        <path d="M 810 94.8 L 810 94.8" fill="none" stroke="#000"
              stroke-width="1.2" stroke-miterlimit="10" pointer-events="none"/>
        <path d="M 810 86.4 L 810 86.4" fill="none" stroke="#000"
              stroke-width="1.2" stroke-miterlimit="10" pointer-events="none"/>
        <path d="M 810 78 L 810 78" fill="none" stroke="#000" stroke-width="1.2"
              stroke-miterlimit="10" pointer-events="none"/>
        <path d="M 810 69.6 L 810 69.6" fill="none" stroke="#000"
              stroke-width="1.2" stroke-miterlimit="10" pointer-events="none"/>
        <path d="M 818.4 60 L 818.4 60" fill="none" stroke="#000"
              stroke-width="1.2" stroke-miterlimit="10" pointer-events="none"/>
        <path d="M 826.8 60 L 826.8 60" fill="none" stroke="#000"
              stroke-width="1.2" stroke-miterlimit="10" pointer-events="none"/>
        <path d="M 835.2 60 L 835.2 60" fill="none" stroke="#000"
              stroke-width="1.2" stroke-miterlimit="10" pointer-events="none"/>
        <path d="M 843.6 60 L 843.6 60" fill="none" stroke="#000"
              stroke-width="1.2" stroke-miterlimit="10" pointer-events="none"/>
        <path d="M 852 60 L 852 60" fill="none" stroke="#000" stroke-width="1.2"
              stroke-miterlimit="10" pointer-events="none"/>
        <path d="M 860.4 60 L 860.4 60" fill="none" stroke="#000"
              stroke-width="1.2" stroke-miterlimit="10" pointer-events="none"/>
        <rect x="834" y="126" width="12.6" height="7.8" fill-opacity="0"
              fill="#dae2f2" stroke="none" pointer-events="none"/>
        <g fill="#000000" font-family="Arial,Helvetica" font-weight="bold"
           text-anchor="middle" font-size="7.199999999999999px">
            <text x="840.3" y="132.3">
                U36
            </text>
        </g>
        <rect x="828" y="84" width="19.8" height="7.8" fill-opacity="0"
              fill="#dae2f2" stroke="none" pointer-events="none"/>
        <g fill="#000000" font-family="Arial,Helvetica" font-weight="bold"
           text-anchor="middle" font-size="7.199999999999999px">
            <text x="837.9" y="90.3">
                SDMA
            </text>
        </g>
        <path d="M 288 72 L 807.32 72" fill="none" stroke="#000000"
              stroke-width="1.2" stroke-miterlimit="10" pointer-events="none"/>
        <path d="M 805.06 73.8 L 808.66 72 L 805.06 70.2" fill="none"
              stroke="#000000" stroke-width="1.2" stroke-miterlimit="10"
              pointer-events="none"/>
        <g fill="#000000" font-family="Arial,Helvetica" text-anchor="middle"
           font-size="6.6px">
            <rect fill="#FFFFFF" stroke="none" x="754" y="62" width="54"
                  height="9" stroke-width="0"/>
            <text x="781" y="68.1">
                #110 (CPUCLKA)
            </text>
        </g>
        <rect x="138" y="120" width="60" height="60" fill="#6ccefb"
              stroke="#000" stroke-width="1.8" pointer-events="none"/>
        <path d="M 198 128.4 L 198 128.4" fill="none" stroke="#000"
              stroke-width="1.2" stroke-miterlimit="10" pointer-events="none"/>
        <path d="M 198 136.8 L 198 136.8" fill="none" stroke="#000"
              stroke-width="1.2" stroke-miterlimit="10" pointer-events="none"/>
        <path d="M 198 145.2 L 198 145.2" fill="none" stroke="#000"
              stroke-width="1.2" stroke-miterlimit="10" pointer-events="none"/>
        <path d="M 198 153.6 L 198 153.6" fill="none" stroke="#000"
              stroke-width="1.2" stroke-miterlimit="10" pointer-events="none"/>
        <path d="M 198 162 L 198 162" fill="none" stroke="#000"
              stroke-width="1.2" stroke-miterlimit="10" pointer-events="none"/>
        <path d="M 198 170.4 L 198 170.4" fill="none" stroke="#000"
              stroke-width="1.2" stroke-miterlimit="10" pointer-events="none"/>
        <path d="M 189.6 180 L 189.6 180" fill="none" stroke="#000"
              stroke-width="1.2" stroke-miterlimit="10" pointer-events="none"/>
        <path d="M 181.2 180 L 181.2 180" fill="none" stroke="#000"
              stroke-width="1.2" stroke-miterlimit="10" pointer-events="none"/>
        <path d="M 172.8 180 L 172.8 180" fill="none" stroke="#000"
              stroke-width="1.2" stroke-miterlimit="10" pointer-events="none"/>
        <path d="M 164.4 180 L 164.4 180" fill="none" stroke="#000"
              stroke-width="1.2" stroke-miterlimit="10" pointer-events="none"/>
        <path d="M 156 180 L 156 180" fill="none" stroke="#000"
              stroke-width="1.2" stroke-miterlimit="10" pointer-events="none"/>
        <path d="M 147.6 180 L 147.6 180" fill="none" stroke="#000"
              stroke-width="1.2" stroke-miterlimit="10" pointer-events="none"/>
        <path d="M 138 171.6 L 138 171.6" fill="none" stroke="#000"
              stroke-width="1.2" stroke-miterlimit="10" pointer-events="none"/>
        <path d="M 138 163.2 L 138 163.2" fill="none" stroke="#000"
              stroke-width="1.2" stroke-miterlimit="10" pointer-events="none"/>
        <path d="M 138 154.8 L 138 154.8" fill="none" stroke="#000"
              stroke-width="1.2" stroke-miterlimit="10" pointer-events="none"/>
        <path d="M 138 146.4 L 138 146.4" fill="none" stroke="#000"
              stroke-width="1.2" stroke-miterlimit="10" pointer-events="none"/>
        <path d="M 138 138 L 138 138" fill="none" stroke="#000"
              stroke-width="1.2" stroke-miterlimit="10" pointer-events="none"/>
        <path d="M 138 129.6 L 138 129.6" fill="none" stroke="#000"
              stroke-width="1.2" stroke-miterlimit="10" pointer-events="none"/>
        <path d="M 146.4 120 L 146.4 120" fill="none" stroke="#000"
              stroke-width="1.2" stroke-miterlimit="10" pointer-events="none"/>
        <path d="M 154.8 120 L 154.8 120" fill="none" stroke="#000"
              stroke-width="1.2" stroke-miterlimit="10" pointer-events="none"/>
        <path d="M 163.2 120 L 163.2 120" fill="none" stroke="#000"
              stroke-width="1.2" stroke-miterlimit="10" pointer-events="none"/>
        <path d="M 171.6 120 L 171.6 120" fill="none" stroke="#000"
              stroke-width="1.2" stroke-miterlimit="10" pointer-events="none"/>
        <path d="M 180 120 L 180 120" fill="none" stroke="#000"
              stroke-width="1.2" stroke-miterlimit="10" pointer-events="none"/>
        <path d="M 188.4 120 L 188.4 120" fill="none" stroke="#000"
              stroke-width="1.2" stroke-miterlimit="10" pointer-events="none"/>
        <rect x="162" y="186" width="12.6" height="7.8" fill-opacity="0"
              fill="#dae2f2" stroke="none" pointer-events="none"/>
        <g fill="#000000" font-family="Arial,Helvetica" font-weight="bold"
           text-anchor="middle" font-size="7.199999999999999px">
            <text x="168.3" y="192.3">
                U55
            </text>
        </g>
        <rect x="156" y="150" width="14.4" height="7.8" fill-opacity="0"
              fill="#dae2f2" stroke="none" pointer-events="none"/>
        <g fill="#000000" font-family="Arial,Helvetica" font-weight="bold"
           text-anchor="middle" font-size="7.199999999999999px">
            <text x="163.2" y="156.3">
                CPU
            </text>
        </g>
        <path d="M 242.68 30 L 282 30 Q 288 30 288 36 L 288 204" fill="none"
              stroke="#000000" stroke-width="1.2" stroke-miterlimit="10"
              pointer-events="none"/>
        <path d="M 244.94 28.2 L 241.34 30 L 244.94 31.8" fill="none"
              stroke="#000000" stroke-width="1.2" stroke-miterlimit="10"
              pointer-events="none"/>
        <g fill="#000000" font-family="Arial,Helvetica" text-anchor="middle"
           font-size="6.6px">
            <rect fill="#FFFFFF" stroke="none" x="245" y="20" width="50"
                  height="9" stroke-width="0"/>
            <text x="270" y="26.1">
                #11 (CPUCLKA)
            </text>
        </g>
        <path d="M 324 204 L 324 198 L 348 198" fill="none" stroke="#000000"
              stroke-width="1.2" stroke-miterlimit="10" pointer-events="none"/>
        <path d="M 324 199.2 L 324 240 L 289.2 240" fill="none" stroke="#000000"
              stroke-width="1.2" stroke-miterlimit="10" pointer-events="none"/>
        <ellipse cx="324" cy="198" rx="1.2" ry="1.2" fill="#000000"
                 stroke="#000000" stroke-width="1.2" pointer-events="none"/>
        <ellipse cx="288" cy="240" rx="1.2" ry="1.2" fill="#000000"
                 stroke="#000000" stroke-width="1.2" pointer-events="none"/>
        <path d="M 252 240 L 286.8 240" fill="none" stroke="#000000"
              stroke-width="1.2" stroke-miterlimit="10" pointer-events="none"/>
        <ellipse cx="288" cy="240" rx="1.2" ry="1.2" fill="#000000"
                 stroke="#000000" stroke-width="1.2" pointer-events="none"/>
        <path d="M 324 240 L 324 243 Q 324 246 318 246 L 192 246 Q 186 246 186 240 L 186 182.68"
              fill="none" stroke="#000000" stroke-width="1.2"
              stroke-miterlimit="10" pointer-events="none"/>
        <path d="M 187.8 184.94 L 186 181.34 L 184.2 184.94" fill="none"
              stroke="#000000" stroke-width="1.2" stroke-miterlimit="10"
              pointer-events="none"/>
        <g fill="#000000" font-family="Arial,Helvetica" text-anchor="middle"
           font-size="6.6px">
            <rect fill="#FFFFFF" stroke="none" x="193" y="182" width="47"
                  height="9" stroke-width="0"/>
            <text x="216" y="188.1">
                #6 (CPUCLKB)
            </text>
        </g>
    </g>
</svg>