
<svg xmlns="http://www.w3.org/2000/svg"
     xmlns:xlink="http://www.w3.org/1999/xlink" version="1.1" width="1057"
     height="439">
    <defs/>
    <g transform=" scale(0.92) translate(-67.6,4.4)">
        <rect x="543.2" y="247.2" width="1.6" height="1.6" fill="#000000"
              stroke="none" pointer-events="none"/>
        <rect x="543.2" y="207.2" width="1.6" height="1.6" fill="#000000"
              stroke="none" pointer-events="none"/>
        <path d="M 544 234.4 L 544 247.2" fill="none" stroke="#000000"
              stroke-width="1.6" stroke-linecap="square" stroke-miterlimit="10"
              pointer-events="none"/>
        <path d="M 544 208.8 L 544 221.6" fill="none" stroke="#000000"
              stroke-width="1.6" stroke-linecap="square" stroke-miterlimit="10"
              pointer-events="none"/>
        <rect x="535.36" y="222.43" width="17.6" height="4" fill="#000000"
              stroke="#000000" stroke-width="1.6" pointer-events="none"/>
        <rect x="535.36" y="229.92" width="17.6" height="4" fill="#000000"
              stroke="#000000" stroke-width="1.6" pointer-events="none"/>
        <rect x="552" y="240" width="21.6" height="10.4" fill-opacity="0"
              fill="#dae2f2" stroke="none" pointer-events="none"/>
        <g fill="#000000" font-family="Arial,Helvetica" font-weight="bold"
           text-anchor="middle" font-size="9.600000000000001px">
            <text x="562.8" y="248.4">
                C208
            </text>
        </g>
        <rect x="543.2" y="247.2" width="1.6" height="1.6" fill="#000000"
              stroke="none" pointer-events="none"/>
        <path d="M 535.2 264.8 C 552.82 264.8 552.82 264.8 552.82 264.8"
              fill="none" stroke="#000000" stroke-width="1.6"
              stroke-linecap="round" stroke-miterlimit="10"
              pointer-events="none"/>
        <path d="M 538.4 269.6 C 546.06 269.6 549.6 269.6 549.6 269.6"
              fill="none" stroke="#000000" stroke-width="1.6"
              stroke-linecap="round" stroke-miterlimit="10"
              pointer-events="none"/>
        <path d="M 541.6 274.4 C 544.1 274.4 546.4 274.4 546.4 274.4"
              fill="none" stroke="#000000" stroke-width="1.6"
              stroke-linecap="round" stroke-miterlimit="10"
              pointer-events="none"/>
        <path d="M 544 248.8 L 544 263.2" fill="#000000" stroke="#000000"
              stroke-width="1.6" stroke-linecap="square" stroke-miterlimit="10"
              pointer-events="none"/>
        <rect x="704" y="160" width="80" height="80" fill="#6ccefb"
              stroke="#000" stroke-width="2.4" pointer-events="none"/>
        <path d="M 784 171.2 L 784 171.2" fill="none" stroke="#000"
              stroke-width="1.6" stroke-miterlimit="10" pointer-events="none"/>
        <path d="M 784 182.4 L 784 182.4" fill="none" stroke="#000"
              stroke-width="1.6" stroke-miterlimit="10" pointer-events="none"/>
        <path d="M 784 193.6 L 784 193.6" fill="none" stroke="#000"
              stroke-width="1.6" stroke-miterlimit="10" pointer-events="none"/>
        <path d="M 784 204.8 L 784 204.8" fill="none" stroke="#000"
              stroke-width="1.6" stroke-miterlimit="10" pointer-events="none"/>
        <path d="M 784 216 L 784 216" fill="none" stroke="#000"
              stroke-width="1.6" stroke-miterlimit="10" pointer-events="none"/>
        <path d="M 784 227.2 L 784 227.2" fill="none" stroke="#000"
              stroke-width="1.6" stroke-miterlimit="10" pointer-events="none"/>
        <path d="M 772.8 240 L 772.8 240" fill="none" stroke="#000"
              stroke-width="1.6" stroke-miterlimit="10" pointer-events="none"/>
        <path d="M 761.6 240 L 761.6 240" fill="none" stroke="#000"
              stroke-width="1.6" stroke-miterlimit="10" pointer-events="none"/>
        <path d="M 750.4 240 L 750.4 240" fill="none" stroke="#000"
              stroke-width="1.6" stroke-miterlimit="10" pointer-events="none"/>
        <path d="M 739.2 240 L 739.2 240" fill="none" stroke="#000"
              stroke-width="1.6" stroke-miterlimit="10" pointer-events="none"/>
        <path d="M 728 240 L 728 240" fill="none" stroke="#000"
              stroke-width="1.6" stroke-miterlimit="10" pointer-events="none"/>
        <path d="M 716.8 240 L 716.8 240" fill="none" stroke="#000"
              stroke-width="1.6" stroke-miterlimit="10" pointer-events="none"/>
        <path d="M 704 228.8 L 704 228.8" fill="none" stroke="#000"
              stroke-width="1.6" stroke-miterlimit="10" pointer-events="none"/>
        <path d="M 704 217.6 L 704 217.6" fill="none" stroke="#000"
              stroke-width="1.6" stroke-miterlimit="10" pointer-events="none"/>
        <path d="M 704 206.4 L 704 206.4" fill="none" stroke="#000"
              stroke-width="1.6" stroke-miterlimit="10" pointer-events="none"/>
        <path d="M 704 195.2 L 704 195.2" fill="none" stroke="#000"
              stroke-width="1.6" stroke-miterlimit="10" pointer-events="none"/>
        <path d="M 704 184 L 704 184" fill="none" stroke="#000"
              stroke-width="1.6" stroke-miterlimit="10" pointer-events="none"/>
        <path d="M 704 172.8 L 704 172.8" fill="none" stroke="#000"
              stroke-width="1.6" stroke-miterlimit="10" pointer-events="none"/>
        <path d="M 715.2 160 L 715.2 160" fill="none" stroke="#000"
              stroke-width="1.6" stroke-miterlimit="10" pointer-events="none"/>
        <path d="M 726.4 160 L 726.4 160" fill="none" stroke="#000"
              stroke-width="1.6" stroke-miterlimit="10" pointer-events="none"/>
        <path d="M 737.6 160 L 737.6 160" fill="none" stroke="#000"
              stroke-width="1.6" stroke-miterlimit="10" pointer-events="none"/>
        <path d="M 748.8 160 L 748.8 160" fill="none" stroke="#000"
              stroke-width="1.6" stroke-miterlimit="10" pointer-events="none"/>
        <path d="M 760 160 L 760 160" fill="none" stroke="#000"
              stroke-width="1.6" stroke-miterlimit="10" pointer-events="none"/>
        <path d="M 771.2 160 L 771.2 160" fill="none" stroke="#000"
              stroke-width="1.6" stroke-miterlimit="10" pointer-events="none"/>
        <rect x="736" y="248" width="17.6" height="11.2" fill-opacity="0"
              fill="#dae2f2" stroke="none" pointer-events="none"/>
        <g fill="#000000" font-family="Arial,Helvetica" font-weight="bold"
           text-anchor="middle" font-size="9.600000000000001px">
            <text x="744.8" y="256.8">
                U56
            </text>
        </g>
        <rect x="728" y="192" width="31.2" height="10.4" fill-opacity="0"
              fill="#dae2f2" stroke="none" pointer-events="none"/>
        <g fill="#000000" font-family="Arial,Helvetica" font-weight="bold"
           text-anchor="middle" font-size="9.600000000000001px">
            <text x="743.6" y="200.4">
                Combel
            </text>
        </g>
        <rect x="583.2" y="175.2" width="1.6" height="1.6" fill="#000000"
              stroke="none"
              transform="translate(0,200)scale(1,-1)translate(0,-200)rotate(-270,584,200)"
              pointer-events="none"/>
        <rect x="583.2" y="223.2" width="1.6" height="1.6" fill="#000000"
              stroke="none"
              transform="translate(0,200)scale(1,-1)translate(0,-200)rotate(-270,584,200)"
              pointer-events="none"/>
        <path d="M 584 176.8 L 584 184.8" fill="#000000" stroke="#000000"
              stroke-width="1.6" stroke-linecap="square" stroke-miterlimit="10"
              transform="translate(0,200)scale(1,-1)translate(0,-200)rotate(-270,584,200)"
              pointer-events="none"/>
        <path d="M 584 215.2 L 584 223.2" fill="#000000" stroke="#000000"
              stroke-width="1.6" stroke-linecap="square" stroke-miterlimit="10"
              transform="translate(0,200)scale(1,-1)translate(0,-200)rotate(-270,584,200)"
              pointer-events="none"/>
        <path d="M 578.4 185.6 C 589.11 185.46 589.6 185.6 589.6 185.6 L 589.6 214.4 L 578.4 214.4 Z"
              fill="#ffffff" stroke="#000000" stroke-width="1.6"
              stroke-linejoin="round" stroke-linecap="round"
              stroke-miterlimit="10"
              transform="translate(0,200)scale(1,-1)translate(0,-200)rotate(-270,584,200)"
              pointer-events="none"/>
        <rect x="576" y="208" width="16.8" height="10.4" fill-opacity="0"
              fill="#dae2f2" stroke="none" pointer-events="none"/>
        <g fill="#000000" font-family="Arial,Helvetica" font-weight="bold"
           text-anchor="middle" font-size="9.600000000000001px">
            <text x="584.4" y="216.4">
                R21
            </text>
        </g>
        <path d="M 704 200 L 611.58 200" fill="none" stroke="#000000"
              stroke-width="1.6" stroke-miterlimit="10" pointer-events="none"/>
        <path d="M 614.59 197.6 L 609.79 200 L 614.59 202.4" fill="none"
              stroke="#000000" stroke-width="1.6" stroke-miterlimit="10"
              pointer-events="none"/>
        <g fill="#000000" font-family="Arial,Helvetica" text-anchor="middle"
           font-size="8.8px">
            <rect fill="#FFFFFF" stroke="none" x="627" y="187" width="75"
                  height="12" stroke-width="0"/>
            <text x="664" y="194.8">
                #191 (CPUCLKO)
            </text>
        </g>
        <rect x="463.2" y="215.2" width="1.6" height="1.6" fill="#000000"
              stroke="none"
              transform="translate(0,240)scale(1,-1)translate(0,-240)rotate(-180,464,240)"
              pointer-events="none"/>
        <rect x="463.2" y="263.2" width="1.6" height="1.6" fill="#000000"
              stroke="none"
              transform="translate(0,240)scale(1,-1)translate(0,-240)rotate(-180,464,240)"
              pointer-events="none"/>
        <path d="M 464 216.8 L 464 224.8" fill="#000000" stroke="#000000"
              stroke-width="1.6" stroke-linecap="square" stroke-miterlimit="10"
              transform="translate(0,240)scale(1,-1)translate(0,-240)rotate(-180,464,240)"
              pointer-events="none"/>
        <path d="M 464 255.2 L 464 263.2" fill="#000000" stroke="#000000"
              stroke-width="1.6" stroke-linecap="square" stroke-miterlimit="10"
              transform="translate(0,240)scale(1,-1)translate(0,-240)rotate(-180,464,240)"
              pointer-events="none"/>
        <path d="M 458.4 225.6 C 469.11 225.46 469.6 225.6 469.6 225.6 L 469.6 254.4 L 458.4 254.4 Z"
              fill="#ffffff" stroke="#000000" stroke-width="1.6"
              stroke-linejoin="round" stroke-linecap="round"
              stroke-miterlimit="10"
              transform="translate(0,240)scale(1,-1)translate(0,-240)rotate(-180,464,240)"
              pointer-events="none"/>
        <rect x="472" y="256" width="21.6" height="10.4" fill-opacity="0"
              fill="#dae2f2" stroke="none" pointer-events="none"/>
        <g fill="#000000" font-family="Arial,Helvetica" font-weight="bold"
           text-anchor="middle" font-size="9.600000000000001px">
            <text x="482.8" y="264.4">
                R217
            </text>
        </g>
        <path d="M 560 200 L 464 200 L 464 216" fill="none" stroke="#000000"
              stroke-width="1.6" stroke-miterlimit="10" pointer-events="none"/>
        <path d="M 544 208 L 544 200 L 544 201.6" fill="none" stroke="#000000"
              stroke-width="1.6" stroke-miterlimit="10" pointer-events="none"/>
        <ellipse cx="544" cy="200" rx="1.6" ry="1.6" fill="#000000"
                 stroke="#000000" stroke-width="1.6" pointer-events="none"/>
        <rect x="200" y="120" width="136" height="16" fill="#6ccefb"
              stroke="#000" pointer-events="none"/>
        <path d="M 336 122.24 L 336 122.24" fill="none" stroke="#000"
              stroke-miterlimit="10" pointer-events="none"/>
        <path d="M 336 124.48 L 336 124.48" fill="none" stroke="#000"
              stroke-miterlimit="10" pointer-events="none"/>
        <path d="M 336 126.72 L 336 126.72" fill="none" stroke="#000"
              stroke-miterlimit="10" pointer-events="none"/>
        <path d="M 336 128.96 L 336 128.96" fill="none" stroke="#000"
              stroke-miterlimit="10" pointer-events="none"/>
        <path d="M 336 131.2 L 336 131.2" fill="none" stroke="#000"
              stroke-miterlimit="10" pointer-events="none"/>
        <path d="M 336 133.44 L 336 133.44" fill="none" stroke="#000"
              stroke-miterlimit="10" pointer-events="none"/>
        <path d="M 316.96 136 L 316.96 136" fill="none" stroke="#000"
              stroke-miterlimit="10" pointer-events="none"/>
        <path d="M 297.92 136 L 297.92 136" fill="none" stroke="#000"
              stroke-miterlimit="10" pointer-events="none"/>
        <path d="M 278.88 136 L 278.88 136" fill="none" stroke="#000"
              stroke-miterlimit="10" pointer-events="none"/>
        <path d="M 259.84 136 L 259.84 136" fill="none" stroke="#000"
              stroke-miterlimit="10" pointer-events="none"/>
        <path d="M 240.8 136 L 240.8 136" fill="none" stroke="#000"
              stroke-miterlimit="10" pointer-events="none"/>
        <path d="M 221.76 136 L 221.76 136" fill="none" stroke="#000"
              stroke-miterlimit="10" pointer-events="none"/>
        <path d="M 200 133.76 L 200 133.76" fill="none" stroke="#000"
              stroke-miterlimit="10" pointer-events="none"/>
        <path d="M 200 131.52 L 200 131.52" fill="none" stroke="#000"
              stroke-miterlimit="10" pointer-events="none"/>
        <path d="M 200 129.28 L 200 129.28" fill="none" stroke="#000"
              stroke-miterlimit="10" pointer-events="none"/>
        <path d="M 200 127.04 L 200 127.04" fill="none" stroke="#000"
              stroke-miterlimit="10" pointer-events="none"/>
        <path d="M 200 124.8 L 200 124.8" fill="none" stroke="#000"
              stroke-miterlimit="10" pointer-events="none"/>
        <path d="M 200 122.56 L 200 122.56" fill="none" stroke="#000"
              stroke-miterlimit="10" pointer-events="none"/>
        <path d="M 219.04 120 L 219.04 120" fill="none" stroke="#000"
              stroke-miterlimit="10" pointer-events="none"/>
        <path d="M 238.08 120 L 238.08 120" fill="none" stroke="#000"
              stroke-miterlimit="10" pointer-events="none"/>
        <path d="M 257.12 120 L 257.12 120" fill="none" stroke="#000"
              stroke-miterlimit="10" pointer-events="none"/>
        <path d="M 276.16 120 L 276.16 120" fill="none" stroke="#000"
              stroke-miterlimit="10" pointer-events="none"/>
        <path d="M 295.2 120 L 295.2 120" fill="none" stroke="#000"
              stroke-miterlimit="10" pointer-events="none"/>
        <path d="M 314.24 120 L 314.24 120" fill="none" stroke="#000"
              stroke-miterlimit="10" pointer-events="none"/>
        <rect x="256" y="144" width="15.2" height="11.2" fill-opacity="0"
              fill="#dae2f2" stroke="none" pointer-events="none"/>
        <g fill="#000000" font-family="Arial,Helvetica" font-weight="bold"
           text-anchor="middle" font-size="9.600000000000001px">
            <text x="263.6" y="152.8">
                J16
            </text>
        </g>
        <rect x="240" y="120" width="59.2" height="10.4" fill-opacity="0"
              fill="#dae2f2" stroke="none" pointer-events="none"/>
        <g fill="#000000" font-family="Arial,Helvetica" font-weight="bold"
           text-anchor="middle" font-size="9.600000000000001px">
            <text x="269.6" y="128.4">
                Expansion slot
            </text>
        </g>
        <path d="M 336 272 L 336 216 Q 336 208 328 208 L 296 208 Q 288 208 288 200 L 288 139.58"
              fill="none" stroke="#000000" stroke-width="1.6"
              stroke-miterlimit="10" pointer-events="none"/>
        <path d="M 290.4 142.59 L 288 137.79 L 285.6 142.59" fill="none"
              stroke="#000000" stroke-width="1.6" stroke-miterlimit="10"
              pointer-events="none"/>
        <g fill="#000000" font-family="Arial,Helvetica" text-anchor="middle"
           font-size="8.8px">
            <rect fill="#FFFFFF" stroke="none" x="299" y="139" width="70"
                  height="12" stroke-width="0"/>
            <text x="332.8" y="146.8">
                #23 (CPUCLKC)
            </text>
        </g>
        <rect x="72" y="224" width="88" height="16" fill="#6ccefb" stroke="#000"
              pointer-events="none"/>
        <path d="M 160 226.24 L 160 226.24" fill="none" stroke="#000"
              stroke-miterlimit="10" pointer-events="none"/>
        <path d="M 160 228.48 L 160 228.48" fill="none" stroke="#000"
              stroke-miterlimit="10" pointer-events="none"/>
        <path d="M 160 230.72 L 160 230.72" fill="none" stroke="#000"
              stroke-miterlimit="10" pointer-events="none"/>
        <path d="M 160 232.96 L 160 232.96" fill="none" stroke="#000"
              stroke-miterlimit="10" pointer-events="none"/>
        <path d="M 160 235.2 L 160 235.2" fill="none" stroke="#000"
              stroke-miterlimit="10" pointer-events="none"/>
        <path d="M 160 237.44 L 160 237.44" fill="none" stroke="#000"
              stroke-miterlimit="10" pointer-events="none"/>
        <path d="M 147.68 240 L 147.68 240" fill="none" stroke="#000"
              stroke-miterlimit="10" pointer-events="none"/>
        <path d="M 135.36 240 L 135.36 240" fill="none" stroke="#000"
              stroke-miterlimit="10" pointer-events="none"/>
        <path d="M 123.04 240 L 123.04 240" fill="none" stroke="#000"
              stroke-miterlimit="10" pointer-events="none"/>
        <path d="M 110.72 240 L 110.72 240" fill="none" stroke="#000"
              stroke-miterlimit="10" pointer-events="none"/>
        <path d="M 98.4 240 L 98.4 240" fill="none" stroke="#000"
              stroke-miterlimit="10" pointer-events="none"/>
        <path d="M 86.08 240 L 86.08 240" fill="none" stroke="#000"
              stroke-miterlimit="10" pointer-events="none"/>
        <path d="M 72 237.76 L 72 237.76" fill="none" stroke="#000"
              stroke-miterlimit="10" pointer-events="none"/>
        <path d="M 72 235.52 L 72 235.52" fill="none" stroke="#000"
              stroke-miterlimit="10" pointer-events="none"/>
        <path d="M 72 233.28 L 72 233.28" fill="none" stroke="#000"
              stroke-miterlimit="10" pointer-events="none"/>
        <path d="M 72 231.04 L 72 231.04" fill="none" stroke="#000"
              stroke-miterlimit="10" pointer-events="none"/>
        <path d="M 72 228.8 L 72 228.8" fill="none" stroke="#000"
              stroke-miterlimit="10" pointer-events="none"/>
        <path d="M 72 226.56 L 72 226.56" fill="none" stroke="#000"
              stroke-miterlimit="10" pointer-events="none"/>
        <path d="M 84.32 224 L 84.32 224" fill="none" stroke="#000"
              stroke-miterlimit="10" pointer-events="none"/>
        <path d="M 96.64 224 L 96.64 224" fill="none" stroke="#000"
              stroke-miterlimit="10" pointer-events="none"/>
        <path d="M 108.96 224 L 108.96 224" fill="none" stroke="#000"
              stroke-miterlimit="10" pointer-events="none"/>
        <path d="M 121.28 224 L 121.28 224" fill="none" stroke="#000"
              stroke-miterlimit="10" pointer-events="none"/>
        <path d="M 133.6 224 L 133.6 224" fill="none" stroke="#000"
              stroke-miterlimit="10" pointer-events="none"/>
        <path d="M 145.92 224 L 145.92 224" fill="none" stroke="#000"
              stroke-miterlimit="10" pointer-events="none"/>
        <rect x="104" y="248" width="14.4" height="10.4" fill-opacity="0"
              fill="#dae2f2" stroke="none" pointer-events="none"/>
        <g fill="#000000" font-family="Arial,Helvetica" font-weight="bold"
           text-anchor="middle" font-size="9.600000000000001px">
            <text x="111.2" y="256.4">
                J20
            </text>
        </g>
        <rect x="88" y="224" width="59.2" height="10.4" fill-opacity="0"
              fill="#dae2f2" stroke="none" pointer-events="none"/>
        <g fill="#000000" font-family="Arial,Helvetica" font-weight="bold"
           text-anchor="middle" font-size="9.600000000000001px">
            <text x="117.6" y="232.4">
                Expansion slot
            </text>
        </g>
        <rect x="240" y="0" width="80" height="80" fill="#6ccefb" stroke="#000"
              stroke-width="2.4" pointer-events="none"/>
        <path d="M 320 11.2 L 320 11.2" fill="none" stroke="#000"
              stroke-width="1.6" stroke-miterlimit="10" pointer-events="none"/>
        <path d="M 320 22.4 L 320 22.4" fill="none" stroke="#000"
              stroke-width="1.6" stroke-miterlimit="10" pointer-events="none"/>
        <path d="M 320 33.6 L 320 33.6" fill="none" stroke="#000"
              stroke-width="1.6" stroke-miterlimit="10" pointer-events="none"/>
        <path d="M 320 44.8 L 320 44.8" fill="none" stroke="#000"
              stroke-width="1.6" stroke-miterlimit="10" pointer-events="none"/>
        <path d="M 320 56 L 320 56" fill="none" stroke="#000" stroke-width="1.6"
              stroke-miterlimit="10" pointer-events="none"/>
        <path d="M 320 67.2 L 320 67.2" fill="none" stroke="#000"
              stroke-width="1.6" stroke-miterlimit="10" pointer-events="none"/>
        <path d="M 308.8 80 L 308.8 80" fill="none" stroke="#000"
              stroke-width="1.6" stroke-miterlimit="10" pointer-events="none"/>
        <path d="M 297.6 80 L 297.6 80" fill="none" stroke="#000"
              stroke-width="1.6" stroke-miterlimit="10" pointer-events="none"/>
        <path d="M 286.4 80 L 286.4 80" fill="none" stroke="#000"
              stroke-width="1.6" stroke-miterlimit="10" pointer-events="none"/>
        <path d="M 275.2 80 L 275.2 80" fill="none" stroke="#000"
              stroke-width="1.6" stroke-miterlimit="10" pointer-events="none"/>
        <path d="M 264 80 L 264 80" fill="none" stroke="#000" stroke-width="1.6"
              stroke-miterlimit="10" pointer-events="none"/>
        <path d="M 252.8 80 L 252.8 80" fill="none" stroke="#000"
              stroke-width="1.6" stroke-miterlimit="10" pointer-events="none"/>
        <path d="M 240 68.8 L 240 68.8" fill="none" stroke="#000"
              stroke-width="1.6" stroke-miterlimit="10" pointer-events="none"/>
        <path d="M 240 57.6 L 240 57.6" fill="none" stroke="#000"
              stroke-width="1.6" stroke-miterlimit="10" pointer-events="none"/>
        <path d="M 240 46.4 L 240 46.4" fill="none" stroke="#000"
              stroke-width="1.6" stroke-miterlimit="10" pointer-events="none"/>
        <path d="M 240 35.2 L 240 35.2" fill="none" stroke="#000"
              stroke-width="1.6" stroke-miterlimit="10" pointer-events="none"/>
        <path d="M 240 24 L 240 24" fill="none" stroke="#000" stroke-width="1.6"
              stroke-miterlimit="10" pointer-events="none"/>
        <path d="M 240 12.8 L 240 12.8" fill="none" stroke="#000"
              stroke-width="1.6" stroke-miterlimit="10" pointer-events="none"/>
        <path d="M 251.2 0 L 251.2 0" fill="none" stroke="#000"
              stroke-width="1.6" stroke-miterlimit="10" pointer-events="none"/>
        <path d="M 262.4 0 L 262.4 0" fill="none" stroke="#000"
              stroke-width="1.6" stroke-miterlimit="10" pointer-events="none"/>
        <path d="M 273.6 0 L 273.6 0" fill="none" stroke="#000"
              stroke-width="1.6" stroke-miterlimit="10" pointer-events="none"/>
        <path d="M 284.8 0 L 284.8 0" fill="none" stroke="#000"
              stroke-width="1.6" stroke-miterlimit="10" pointer-events="none"/>
        <path d="M 296 0 L 296 0" fill="none" stroke="#000" stroke-width="1.6"
              stroke-miterlimit="10" pointer-events="none"/>
        <path d="M 307.2 0 L 307.2 0" fill="none" stroke="#000"
              stroke-width="1.6" stroke-miterlimit="10" pointer-events="none"/>
        <rect x="272" y="88" width="16.8" height="10.4" fill-opacity="0"
              fill="#dae2f2" stroke="none" pointer-events="none"/>
        <g fill="#000000" font-family="Arial,Helvetica" font-weight="bold"
           text-anchor="middle" font-size="9.600000000000001px">
            <text x="280.4" y="96.4">
                U33
            </text>
        </g>
        <rect x="272" y="32" width="18.4" height="10.4" fill-opacity="0"
              fill="#dae2f2" stroke="none" pointer-events="none"/>
        <g fill="#000000" font-family="Arial,Helvetica" font-weight="bold"
           text-anchor="middle" font-size="9.600000000000001px">
            <text x="281.2" y="40.4">
                FPU
            </text>
        </g>
        <rect x="1080" y="80" width="80" height="80" fill="#6ccefb"
              stroke="#000" stroke-width="2.4" pointer-events="none"/>
        <path d="M 1160 91.2 L 1160 91.2" fill="none" stroke="#000"
              stroke-width="1.6" stroke-miterlimit="10" pointer-events="none"/>
        <path d="M 1160 102.4 L 1160 102.4" fill="none" stroke="#000"
              stroke-width="1.6" stroke-miterlimit="10" pointer-events="none"/>
        <path d="M 1160 113.6 L 1160 113.6" fill="none" stroke="#000"
              stroke-width="1.6" stroke-miterlimit="10" pointer-events="none"/>
        <path d="M 1160 124.8 L 1160 124.8" fill="none" stroke="#000"
              stroke-width="1.6" stroke-miterlimit="10" pointer-events="none"/>
        <path d="M 1160 136 L 1160 136" fill="none" stroke="#000"
              stroke-width="1.6" stroke-miterlimit="10" pointer-events="none"/>
        <path d="M 1160 147.2 L 1160 147.2" fill="none" stroke="#000"
              stroke-width="1.6" stroke-miterlimit="10" pointer-events="none"/>
        <path d="M 1148.8 160 L 1148.8 160" fill="none" stroke="#000"
              stroke-width="1.6" stroke-miterlimit="10" pointer-events="none"/>
        <path d="M 1137.6 160 L 1137.6 160" fill="none" stroke="#000"
              stroke-width="1.6" stroke-miterlimit="10" pointer-events="none"/>
        <path d="M 1126.4 160 L 1126.4 160" fill="none" stroke="#000"
              stroke-width="1.6" stroke-miterlimit="10" pointer-events="none"/>
        <path d="M 1115.2 160 L 1115.2 160" fill="none" stroke="#000"
              stroke-width="1.6" stroke-miterlimit="10" pointer-events="none"/>
        <path d="M 1104 160 L 1104 160" fill="none" stroke="#000"
              stroke-width="1.6" stroke-miterlimit="10" pointer-events="none"/>
        <path d="M 1092.8 160 L 1092.8 160" fill="none" stroke="#000"
              stroke-width="1.6" stroke-miterlimit="10" pointer-events="none"/>
        <path d="M 1080 148.8 L 1080 148.8" fill="none" stroke="#000"
              stroke-width="1.6" stroke-miterlimit="10" pointer-events="none"/>
        <path d="M 1080 137.6 L 1080 137.6" fill="none" stroke="#000"
              stroke-width="1.6" stroke-miterlimit="10" pointer-events="none"/>
        <path d="M 1080 126.4 L 1080 126.4" fill="none" stroke="#000"
              stroke-width="1.6" stroke-miterlimit="10" pointer-events="none"/>
        <path d="M 1080 115.2 L 1080 115.2" fill="none" stroke="#000"
              stroke-width="1.6" stroke-miterlimit="10" pointer-events="none"/>
        <path d="M 1080 104 L 1080 104" fill="none" stroke="#000"
              stroke-width="1.6" stroke-miterlimit="10" pointer-events="none"/>
        <path d="M 1080 92.8 L 1080 92.8" fill="none" stroke="#000"
              stroke-width="1.6" stroke-miterlimit="10" pointer-events="none"/>
        <path d="M 1091.2 80 L 1091.2 80" fill="none" stroke="#000"
              stroke-width="1.6" stroke-miterlimit="10" pointer-events="none"/>
        <path d="M 1102.4 80 L 1102.4 80" fill="none" stroke="#000"
              stroke-width="1.6" stroke-miterlimit="10" pointer-events="none"/>
        <path d="M 1113.6 80 L 1113.6 80" fill="none" stroke="#000"
              stroke-width="1.6" stroke-miterlimit="10" pointer-events="none"/>
        <path d="M 1124.8 80 L 1124.8 80" fill="none" stroke="#000"
              stroke-width="1.6" stroke-miterlimit="10" pointer-events="none"/>
        <path d="M 1136 80 L 1136 80" fill="none" stroke="#000"
              stroke-width="1.6" stroke-miterlimit="10" pointer-events="none"/>
        <path d="M 1147.2 80 L 1147.2 80" fill="none" stroke="#000"
              stroke-width="1.6" stroke-miterlimit="10" pointer-events="none"/>
        <rect x="1112" y="168" width="16.8" height="10.4" fill-opacity="0"
              fill="#dae2f2" stroke="none" pointer-events="none"/>
        <g fill="#000000" font-family="Arial,Helvetica" font-weight="bold"
           text-anchor="middle" font-size="9.600000000000001px">
            <text x="1120.4" y="176.4">
                U36
            </text>
        </g>
        <rect x="1104" y="112" width="26.4" height="10.4" fill-opacity="0"
              fill="#dae2f2" stroke="none" pointer-events="none"/>
        <g fill="#000000" font-family="Arial,Helvetica" font-weight="bold"
           text-anchor="middle" font-size="9.600000000000001px">
            <text x="1117.2" y="120.4">
                SDMA
            </text>
        </g>
        <path d="M 384 96 L 1076.42 96" fill="none" stroke="#000000"
              stroke-width="1.6" stroke-miterlimit="10" pointer-events="none"/>
        <path d="M 1073.41 98.4 L 1078.21 96 L 1073.41 93.6" fill="none"
              stroke="#000000" stroke-width="1.6" stroke-miterlimit="10"
              pointer-events="none"/>
        <g fill="#000000" font-family="Arial,Helvetica" text-anchor="middle"
           font-size="8.8px">
            <rect fill="#FFFFFF" stroke="none" x="1006" y="83" width="74"
                  height="12" stroke-width="0"/>
            <text x="1042" y="90.8">
                #110 (CPUCLKA)
            </text>
        </g>
        <rect x="184" y="160" width="80" height="80" fill="#6ccefb"
              stroke="#000" stroke-width="2.4" pointer-events="none"/>
        <path d="M 264 171.2 L 264 171.2" fill="none" stroke="#000"
              stroke-width="1.6" stroke-miterlimit="10" pointer-events="none"/>
        <path d="M 264 182.4 L 264 182.4" fill="none" stroke="#000"
              stroke-width="1.6" stroke-miterlimit="10" pointer-events="none"/>
        <path d="M 264 193.6 L 264 193.6" fill="none" stroke="#000"
              stroke-width="1.6" stroke-miterlimit="10" pointer-events="none"/>
        <path d="M 264 204.8 L 264 204.8" fill="none" stroke="#000"
              stroke-width="1.6" stroke-miterlimit="10" pointer-events="none"/>
        <path d="M 264 216 L 264 216" fill="none" stroke="#000"
              stroke-width="1.6" stroke-miterlimit="10" pointer-events="none"/>
        <path d="M 264 227.2 L 264 227.2" fill="none" stroke="#000"
              stroke-width="1.6" stroke-miterlimit="10" pointer-events="none"/>
        <path d="M 252.8 240 L 252.8 240" fill="none" stroke="#000"
              stroke-width="1.6" stroke-miterlimit="10" pointer-events="none"/>
        <path d="M 241.6 240 L 241.6 240" fill="none" stroke="#000"
              stroke-width="1.6" stroke-miterlimit="10" pointer-events="none"/>
        <path d="M 230.4 240 L 230.4 240" fill="none" stroke="#000"
              stroke-width="1.6" stroke-miterlimit="10" pointer-events="none"/>
        <path d="M 219.2 240 L 219.2 240" fill="none" stroke="#000"
              stroke-width="1.6" stroke-miterlimit="10" pointer-events="none"/>
        <path d="M 208 240 L 208 240" fill="none" stroke="#000"
              stroke-width="1.6" stroke-miterlimit="10" pointer-events="none"/>
        <path d="M 196.8 240 L 196.8 240" fill="none" stroke="#000"
              stroke-width="1.6" stroke-miterlimit="10" pointer-events="none"/>
        <path d="M 184 228.8 L 184 228.8" fill="none" stroke="#000"
              stroke-width="1.6" stroke-miterlimit="10" pointer-events="none"/>
        <path d="M 184 217.6 L 184 217.6" fill="none" stroke="#000"
              stroke-width="1.6" stroke-miterlimit="10" pointer-events="none"/>
        <path d="M 184 206.4 L 184 206.4" fill="none" stroke="#000"
              stroke-width="1.6" stroke-miterlimit="10" pointer-events="none"/>
        <path d="M 184 195.2 L 184 195.2" fill="none" stroke="#000"
              stroke-width="1.6" stroke-miterlimit="10" pointer-events="none"/>
        <path d="M 184 184 L 184 184" fill="none" stroke="#000"
              stroke-width="1.6" stroke-miterlimit="10" pointer-events="none"/>
        <path d="M 184 172.8 L 184 172.8" fill="none" stroke="#000"
              stroke-width="1.6" stroke-miterlimit="10" pointer-events="none"/>
        <path d="M 195.2 160 L 195.2 160" fill="none" stroke="#000"
              stroke-width="1.6" stroke-miterlimit="10" pointer-events="none"/>
        <path d="M 206.4 160 L 206.4 160" fill="none" stroke="#000"
              stroke-width="1.6" stroke-miterlimit="10" pointer-events="none"/>
        <path d="M 217.6 160 L 217.6 160" fill="none" stroke="#000"
              stroke-width="1.6" stroke-miterlimit="10" pointer-events="none"/>
        <path d="M 228.8 160 L 228.8 160" fill="none" stroke="#000"
              stroke-width="1.6" stroke-miterlimit="10" pointer-events="none"/>
        <path d="M 240 160 L 240 160" fill="none" stroke="#000"
              stroke-width="1.6" stroke-miterlimit="10" pointer-events="none"/>
        <path d="M 251.2 160 L 251.2 160" fill="none" stroke="#000"
              stroke-width="1.6" stroke-miterlimit="10" pointer-events="none"/>
        <rect x="216" y="248" width="16.8" height="10.4" fill-opacity="0"
              fill="#dae2f2" stroke="none" pointer-events="none"/>
        <g fill="#000000" font-family="Arial,Helvetica" font-weight="bold"
           text-anchor="middle" font-size="9.600000000000001px">
            <text x="224.4" y="256.4">
                U55
            </text>
        </g>
        <rect x="208" y="200" width="19.2" height="10.4" fill-opacity="0"
              fill="#dae2f2" stroke="none" pointer-events="none"/>
        <g fill="#000000" font-family="Arial,Helvetica" font-weight="bold"
           text-anchor="middle" font-size="9.600000000000001px">
            <text x="217.6" y="208.4">
                CPU
            </text>
        </g>
        <path d="M 323.58 40 L 376 40 Q 384 40 384 48 L 384 272" fill="none"
              stroke="#000000" stroke-width="1.6" stroke-miterlimit="10"
              pointer-events="none"/>
        <path d="M 326.59 37.6 L 321.79 40 L 326.59 42.4" fill="none"
              stroke="#000000" stroke-width="1.6" stroke-miterlimit="10"
              pointer-events="none"/>
        <g fill="#000000" font-family="Arial,Helvetica" text-anchor="middle"
           font-size="8.8px">
            <rect fill="#FFFFFF" stroke="none" x="326" y="27" width="69"
                  height="12" stroke-width="0"/>
            <text x="360" y="34.8">
                #11 (CPUCLKA)
            </text>
        </g>
        <path d="M 432 320 L 432 324 Q 432 328 424 328 L 256 328 Q 248 328 248 320 L 248 243.58"
              fill="none" stroke="#000000" stroke-width="1.6"
              stroke-miterlimit="10" pointer-events="none"/>
        <path d="M 250.4 246.59 L 248 241.79 L 245.6 246.59" fill="none"
              stroke="#000000" stroke-width="1.6" stroke-miterlimit="10"
              pointer-events="none"/>
        <g fill="#000000" font-family="Arial,Helvetica" text-anchor="middle"
           font-size="8.8px">
            <rect fill="#FFFFFF" stroke="none" x="257" y="243" width="64"
                  height="12" stroke-width="0"/>
            <text x="288" y="250.8">
                #6 (CPUCLKB)
            </text>
        </g>
        <rect x="287.2" y="351.2" width="1.6" height="1.6" fill="#000000"
              stroke="none" transform="rotate(270,344,400)"
              pointer-events="none"/>
        <rect x="287.2" y="367.2" width="1.6" height="1.6" fill="#000000"
              stroke="none" transform="rotate(270,344,400)"
              pointer-events="none"/>
        <rect x="287.2" y="383.2" width="1.6" height="1.6" fill="#000000"
              stroke="none" transform="rotate(270,344,400)"
              pointer-events="none"/>
        <rect x="287.2" y="399.2" width="1.6" height="1.6" fill="#000000"
              stroke="none" transform="rotate(270,344,400)"
              pointer-events="none"/>
        <rect x="287.2" y="415.2" width="1.6" height="1.6" fill="#000000"
              stroke="none" transform="rotate(270,344,400)"
              pointer-events="none"/>
        <rect x="287.2" y="431.2" width="1.6" height="1.6" fill="#000000"
              stroke="none" transform="rotate(270,344,400)"
              pointer-events="none"/>
        <rect x="287.2" y="447.2" width="1.6" height="1.6" fill="#000000"
              stroke="none" transform="rotate(270,344,400)"
              pointer-events="none"/>
        <rect x="399.2" y="447.2" width="1.6" height="1.6" fill="#000000"
              stroke="none" transform="rotate(270,344,400)"
              pointer-events="none"/>
        <rect x="399.2" y="431.2" width="1.6" height="1.6" fill="#000000"
              stroke="none" transform="rotate(270,344,400)"
              pointer-events="none"/>
        <rect x="399.2" y="415.2" width="1.6" height="1.6" fill="#000000"
              stroke="none" transform="rotate(270,344,400)"
              pointer-events="none"/>
        <rect x="399.2" y="399.2" width="1.6" height="1.6" fill="#000000"
              stroke="none" transform="rotate(270,344,400)"
              pointer-events="none"/>
        <rect x="399.2" y="383.2" width="1.6" height="1.6" fill="#000000"
              stroke="none" transform="rotate(270,344,400)"
              pointer-events="none"/>
        <rect x="399.2" y="367.2" width="1.6" height="1.6" fill="#000000"
              stroke="none" transform="rotate(270,344,400)"
              pointer-events="none"/>
        <rect x="399.2" y="351.2" width="1.6" height="1.6" fill="#000000"
              stroke="none" transform="rotate(270,344,400)"
              pointer-events="none"/>
        <rect x="304" y="304" width="80" height="192" fill="#fff" stroke="#000"
              stroke-width="2.4" transform="rotate(270,344,400)"
              pointer-events="none"/>
        <g fill="#000000" font-family="Arial,Helvetica" font-size="12.8px"
           transform="rotate(270,344,400)">
            <text x="308" y="354.4">
                1A
            </text>
        </g>
        <path d="M 304 352 L 288.8 352" fill="none" stroke="#000"
              stroke-width="1.6" stroke-miterlimit="10"
              transform="rotate(270,344,400)" pointer-events="none"/>
        <g fill="#000000" font-family="Arial,Helvetica" font-size="12.8px"
           transform="rotate(270,344,400)">
            <text x="308" y="370.4">
                1Y
            </text>
        </g>
        <path d="M 304 368 L 288.8 368" fill="none" stroke="#000"
              stroke-width="1.6" stroke-miterlimit="10"
              transform="rotate(270,344,400)" pointer-events="none"/>
        <g fill="#000000" font-family="Arial,Helvetica" font-size="12.8px"
           transform="rotate(270,344,400)">
            <text x="308" y="386.4">
                2A
            </text>
        </g>
        <path d="M 304 384 L 288.8 384" fill="none" stroke="#000"
              stroke-width="1.6" stroke-miterlimit="10"
              transform="rotate(270,344,400)" pointer-events="none"/>
        <g fill="#000000" font-family="Arial,Helvetica" font-size="12.8px"
           transform="rotate(270,344,400)">
            <text x="308" y="402.4">
                2Y
            </text>
        </g>
        <path d="M 304 400 L 288.8 400" fill="none" stroke="#000"
              stroke-width="1.6" stroke-miterlimit="10"
              transform="rotate(270,344,400)" pointer-events="none"/>
        <g fill="#000000" font-family="Arial,Helvetica" font-size="12.8px"
           transform="rotate(270,344,400)">
            <text x="308" y="418.4">
                3A
            </text>
        </g>
        <path d="M 304 416 L 288.8 416" fill="none" stroke="#000"
              stroke-width="1.6" stroke-miterlimit="10"
              transform="rotate(270,344,400)" pointer-events="none"/>
        <g fill="#000000" font-family="Arial,Helvetica" font-size="12.8px"
           transform="rotate(270,344,400)">
            <text x="308" y="434.4">
                3Y
            </text>
        </g>
        <path d="M 304 432 L 288.8 432" fill="none" stroke="#000"
              stroke-width="1.6" stroke-miterlimit="10"
              transform="rotate(270,344,400)" pointer-events="none"/>
        <g fill="#000000" font-family="Arial,Helvetica" font-size="12.8px"
           transform="rotate(270,344,400)">
            <text x="308" y="450.4">
                GND
            </text>
        </g>
        <path d="M 304 448 L 288.8 448" fill="none" stroke="#000"
              stroke-width="1.6" stroke-miterlimit="10"
              transform="rotate(270,344,400)" pointer-events="none"/>
        <g fill="#000000" font-family="Arial,Helvetica" text-anchor="end"
           font-size="12.8px" transform="rotate(270,344,400)">
            <text x="380" y="450.4">
                4Y
            </text>
        </g>
        <path d="M 384 448 L 399.2 448" fill="none" stroke="#000"
              stroke-width="1.6" stroke-miterlimit="10"
              transform="rotate(270,344,400)" pointer-events="none"/>
        <g fill="#000000" font-family="Arial,Helvetica" text-anchor="end"
           font-size="12.8px" transform="rotate(270,344,400)">
            <text x="380" y="434.4">
                4A
            </text>
        </g>
        <path d="M 384 432 L 399.2 432" fill="none" stroke="#000"
              stroke-width="1.6" stroke-miterlimit="10"
              transform="rotate(270,344,400)" pointer-events="none"/>
        <g fill="#000000" font-family="Arial,Helvetica" text-anchor="end"
           font-size="12.8px" transform="rotate(270,344,400)">
            <text x="380" y="418.4">
                5Y
            </text>
        </g>
        <path d="M 384 416 L 399.2 416" fill="none" stroke="#000"
              stroke-width="1.6" stroke-miterlimit="10"
              transform="rotate(270,344,400)" pointer-events="none"/>
        <g fill="#000000" font-family="Arial,Helvetica" text-anchor="end"
           font-size="12.8px" transform="rotate(270,344,400)">
            <text x="380" y="402.4">
                5A
            </text>
        </g>
        <path d="M 384 400 L 399.2 400" fill="none" stroke="#000"
              stroke-width="1.6" stroke-miterlimit="10"
              transform="rotate(270,344,400)" pointer-events="none"/>
        <g fill="#000000" font-family="Arial,Helvetica" text-anchor="end"
           font-size="12.8px" transform="rotate(270,344,400)">
            <text x="380" y="386.4">
                6Y
            </text>
        </g>
        <path d="M 384 384 L 399.2 384" fill="none" stroke="#000"
              stroke-width="1.6" stroke-miterlimit="10"
              transform="rotate(270,344,400)" pointer-events="none"/>
        <g fill="#000000" font-family="Arial,Helvetica" text-anchor="end"
           font-size="12.8px" transform="rotate(270,344,400)">
            <text x="380" y="370.4">
                6A
            </text>
        </g>
        <path d="M 384 368 L 399.2 368" fill="none" stroke="#000"
              stroke-width="1.6" stroke-miterlimit="10"
              transform="rotate(270,344,400)" pointer-events="none"/>
        <g fill="#000000" font-family="Arial,Helvetica" text-anchor="end"
           font-size="12.8px" transform="rotate(270,344,400)">
            <text x="380" y="354.4">
                VCC
            </text>
        </g>
        <path d="M 384 352 L 399.2 352" fill="none" stroke="#000"
              stroke-width="1.6" stroke-miterlimit="10"
              transform="rotate(270,344,400)" pointer-events="none"/>
        <rect x="408" y="448" width="25.6" height="10.4" fill-opacity="0"
              fill="#dae2f2" stroke="none" pointer-events="none"/>
        <g fill="#000000" font-family="Arial,Helvetica" font-weight="bold"
           text-anchor="middle" font-size="9.600000000000001px">
            <text x="420.8" y="456.4">
                74F04
            </text>
        </g>
        <rect x="431.2" y="319.2" width="1.6" height="1.6" fill="#000000"
              stroke="none" pointer-events="none"/>
        <path d="M 432 304.8 L 432 319.2" fill="#000000" stroke="#000000"
              stroke-width="1.6" stroke-linecap="square" stroke-miterlimit="10"
              pointer-events="none"/>
        <path d="M 392 344 L 432 344 L 432 321.6" fill="none" stroke="#000000"
              stroke-width="1.6" stroke-miterlimit="10"
              stroke-dasharray="1.6 1.6" pointer-events="none"/>
        <ellipse cx="432" cy="320" rx="1.6" ry="1.6" fill="#000000"
                 stroke="#000000" stroke-width="1.6" pointer-events="none"/>
        <rect x="383.2" y="271.2" width="1.6" height="1.6" fill="#000000"
              stroke="none" pointer-events="none"/>
        <path d="M 384 272.8 L 384 287.2" fill="#000000" stroke="#000000"
              stroke-width="1.6" stroke-linecap="square" stroke-miterlimit="10"
              pointer-events="none"/>
        <rect x="335.2" y="271.2" width="1.6" height="1.6" fill="#000000"
              stroke="none" pointer-events="none"/>
        <path d="M 336 272.8 L 336 287.2" fill="#000000" stroke="#000000"
              stroke-width="1.6" stroke-linecap="square" stroke-miterlimit="10"
              pointer-events="none"/>
        <path d="M 312 456 L 312 344" fill="none" stroke="#000000"
              stroke-width="1.6" stroke-miterlimit="10" pointer-events="none"/>
        <path d="M 344 344 L 344 400 L 313.6 400" fill="none" stroke="#000000"
              stroke-width="1.6" stroke-miterlimit="10" pointer-events="none"/>
        <ellipse cx="312" cy="400" rx="1.6" ry="1.6" fill="#000000"
                 stroke="#000000" stroke-width="1.6" pointer-events="none"/>
        <path d="M 376 344 L 376 400 L 345.6 400" fill="none" stroke="#000000"
              stroke-width="1.6" stroke-miterlimit="10" pointer-events="none"/>
        <ellipse cx="344" cy="400" rx="1.6" ry="1.6" fill="#000000"
                 stroke="#000000" stroke-width="1.6" pointer-events="none"/>
        <rect x="335.2" y="319.2" width="1.6" height="1.6" fill="#000000"
              stroke="none" pointer-events="none"/>
        <path d="M 336 304.8 L 336 319.2" fill="#000000" stroke="#000000"
              stroke-width="1.6" stroke-linecap="square" stroke-miterlimit="10"
              pointer-events="none"/>
        <rect x="383.2" y="319.2" width="1.6" height="1.6" fill="#000000"
              stroke="none" pointer-events="none"/>
        <path d="M 384 304.8 L 384 319.2" fill="#000000" stroke="#000000"
              stroke-width="1.6" stroke-linecap="square" stroke-miterlimit="10"
              pointer-events="none"/>
        <rect x="431.2" y="271.2" width="1.6" height="1.6" fill="#000000"
              stroke="none" pointer-events="none"/>
        <path d="M 432 272.8 L 432 287.2" fill="#000000" stroke="#000000"
              stroke-width="1.6" stroke-linecap="square" stroke-miterlimit="10"
              pointer-events="none"/>
        <path d="M 336 320 L 382.4 320" fill="none" stroke="#000000"
              stroke-width="1.6" stroke-miterlimit="10" pointer-events="none"/>
        <ellipse cx="384" cy="320" rx="1.6" ry="1.6" fill="#000000"
                 stroke="#000000" stroke-width="1.6" pointer-events="none"/>
        <path d="M 360 344 L 360 272 L 382.4 272" fill="none" stroke="#000000"
              stroke-width="1.6" stroke-miterlimit="10"
              stroke-dasharray="1.6 1.6" pointer-events="none"/>
        <ellipse cx="384" cy="272" rx="1.6" ry="1.6" fill="#000000"
                 stroke="#000000" stroke-width="1.6" pointer-events="none"/>
        <path d="M 462.4 264 L 432 264 L 432 272" fill="none" stroke="#000000"
              stroke-width="1.6" stroke-miterlimit="10" pointer-events="none"/>
        <ellipse cx="464" cy="264" rx="1.6" ry="1.6" fill="#000000"
                 stroke="#000000" stroke-width="1.6" pointer-events="none"/>
        <path d="M 430.4 264 L 416 264 L 416 320 L 385.6 320" fill="none"
              stroke="#000000" stroke-width="1.6" stroke-miterlimit="10"
              pointer-events="none"/>
        <ellipse cx="432" cy="264" rx="1.6" ry="1.6" fill="#000000"
                 stroke="#000000" stroke-width="1.6" pointer-events="none"/>
        <ellipse cx="384" cy="320" rx="1.6" ry="1.6" fill="#000000"
                 stroke="#000000" stroke-width="1.6" pointer-events="none"/>
        <path d="M 328 344 L 328 272 L 334.4 272" fill="none" stroke="#000000"
              stroke-width="1.6" stroke-miterlimit="10"
              stroke-dasharray="1.6 1.6" pointer-events="none"/>
        <ellipse cx="336" cy="272" rx="1.6" ry="1.6" fill="#000000"
                 stroke="#000000" stroke-width="1.6" pointer-events="none"/>
        <path d="M 296 456 L 296 464 L 464 464 L 464 265.6" fill="none"
              stroke="#000000" stroke-width="1.6" stroke-miterlimit="10"
              stroke-dasharray="1.6 1.6" pointer-events="none"/>
        <ellipse cx="464" cy="264" rx="1.6" ry="1.6" fill="#000000"
                 stroke="#000000" stroke-width="1.6" pointer-events="none"/>
    </g>
</svg>