
<svg xmlns="http://www.w3.org/2000/svg"
     xmlns:xlink="http://www.w3.org/1999/xlink" version="1.1" width="1193"
     height="344">
    <defs/>
    <g transform=" scale(0.9) translate(-76.55,4.45)">
        <rect x="611.1" y="278.1" width="1.8" height="1.8" fill="#000000"
              stroke="none" pointer-events="none"/>
        <rect x="611.1" y="233.1" width="1.8" height="1.8" fill="#000000"
              stroke="none" pointer-events="none"/>
        <path d="M 612 263.7 L 612 278.1" fill="none" stroke="#000000"
              stroke-width="1.8" stroke-linecap="square" stroke-miterlimit="10"
              pointer-events="none"/>
        <path d="M 612 234.9 L 612 249.3" fill="none" stroke="#000000"
              stroke-width="1.8" stroke-linecap="square" stroke-miterlimit="10"
              pointer-events="none"/>
        <rect x="602.28" y="250.23" width="19.8" height="4.5" fill="#000000"
              stroke="#000000" stroke-width="1.8" pointer-events="none"/>
        <rect x="602.28" y="258.66" width="19.8" height="4.5" fill="#000000"
              stroke="#000000" stroke-width="1.8" pointer-events="none"/>
        <rect x="621" y="270" width="24.3" height="11.7" fill-opacity="0"
              fill="#dae2f2" stroke="none" pointer-events="none"/>
        <g fill="#000000" font-family="Arial,Helvetica" font-weight="bold"
           text-anchor="middle" font-size="10.8px">
            <text x="633.15" y="279.45">
                C208
            </text>
        </g>
        <rect x="611.1" y="278.1" width="1.8" height="1.8" fill="#000000"
              stroke="none" pointer-events="none"/>
        <path d="M 602.1 297.9 C 621.92 297.9 621.92 297.9 621.92 297.9"
              fill="none" stroke="#000000" stroke-width="1.8"
              stroke-linecap="round" stroke-miterlimit="10"
              pointer-events="none"/>
        <path d="M 605.7 303.3 C 614.31 303.3 618.3 303.3 618.3 303.3"
              fill="none" stroke="#000000" stroke-width="1.8"
              stroke-linecap="round" stroke-miterlimit="10"
              pointer-events="none"/>
        <path d="M 609.3 308.7 C 612.11 308.7 614.7 308.7 614.7 308.7"
              fill="none" stroke="#000000" stroke-width="1.8"
              stroke-linecap="round" stroke-miterlimit="10"
              pointer-events="none"/>
        <path d="M 612 279.9 L 612 296.1" fill="#000000" stroke="#000000"
              stroke-width="1.8" stroke-linecap="square" stroke-miterlimit="10"
              pointer-events="none"/>
        <rect x="792" y="180" width="90" height="90" fill="#6ccefb"
              stroke="#000" stroke-width="2.7" pointer-events="none"/>
        <path d="M 882 192.6 L 882 192.6" fill="none" stroke="#000"
              stroke-width="1.8" stroke-miterlimit="10" pointer-events="none"/>
        <path d="M 882 205.2 L 882 205.2" fill="none" stroke="#000"
              stroke-width="1.8" stroke-miterlimit="10" pointer-events="none"/>
        <path d="M 882 217.8 L 882 217.8" fill="none" stroke="#000"
              stroke-width="1.8" stroke-miterlimit="10" pointer-events="none"/>
        <path d="M 882 230.4 L 882 230.4" fill="none" stroke="#000"
              stroke-width="1.8" stroke-miterlimit="10" pointer-events="none"/>
        <path d="M 882 243 L 882 243" fill="none" stroke="#000"
              stroke-width="1.8" stroke-miterlimit="10" pointer-events="none"/>
        <path d="M 882 255.6 L 882 255.6" fill="none" stroke="#000"
              stroke-width="1.8" stroke-miterlimit="10" pointer-events="none"/>
        <path d="M 869.4 270 L 869.4 270" fill="none" stroke="#000"
              stroke-width="1.8" stroke-miterlimit="10" pointer-events="none"/>
        <path d="M 856.8 270 L 856.8 270" fill="none" stroke="#000"
              stroke-width="1.8" stroke-miterlimit="10" pointer-events="none"/>
        <path d="M 844.2 270 L 844.2 270" fill="none" stroke="#000"
              stroke-width="1.8" stroke-miterlimit="10" pointer-events="none"/>
        <path d="M 831.6 270 L 831.6 270" fill="none" stroke="#000"
              stroke-width="1.8" stroke-miterlimit="10" pointer-events="none"/>
        <path d="M 819 270 L 819 270" fill="none" stroke="#000"
              stroke-width="1.8" stroke-miterlimit="10" pointer-events="none"/>
        <path d="M 806.4 270 L 806.4 270" fill="none" stroke="#000"
              stroke-width="1.8" stroke-miterlimit="10" pointer-events="none"/>
        <path d="M 792 257.4 L 792 257.4" fill="none" stroke="#000"
              stroke-width="1.8" stroke-miterlimit="10" pointer-events="none"/>
        <path d="M 792 244.8 L 792 244.8" fill="none" stroke="#000"
              stroke-width="1.8" stroke-miterlimit="10" pointer-events="none"/>
        <path d="M 792 232.2 L 792 232.2" fill="none" stroke="#000"
              stroke-width="1.8" stroke-miterlimit="10" pointer-events="none"/>
        <path d="M 792 219.6 L 792 219.6" fill="none" stroke="#000"
              stroke-width="1.8" stroke-miterlimit="10" pointer-events="none"/>
        <path d="M 792 207 L 792 207" fill="none" stroke="#000"
              stroke-width="1.8" stroke-miterlimit="10" pointer-events="none"/>
        <path d="M 792 194.4 L 792 194.4" fill="none" stroke="#000"
              stroke-width="1.8" stroke-miterlimit="10" pointer-events="none"/>
        <path d="M 804.6 180 L 804.6 180" fill="none" stroke="#000"
              stroke-width="1.8" stroke-miterlimit="10" pointer-events="none"/>
        <path d="M 817.2 180 L 817.2 180" fill="none" stroke="#000"
              stroke-width="1.8" stroke-miterlimit="10" pointer-events="none"/>
        <path d="M 829.8 180 L 829.8 180" fill="none" stroke="#000"
              stroke-width="1.8" stroke-miterlimit="10" pointer-events="none"/>
        <path d="M 842.4 180 L 842.4 180" fill="none" stroke="#000"
              stroke-width="1.8" stroke-miterlimit="10" pointer-events="none"/>
        <path d="M 855 180 L 855 180" fill="none" stroke="#000"
              stroke-width="1.8" stroke-miterlimit="10" pointer-events="none"/>
        <path d="M 867.6 180 L 867.6 180" fill="none" stroke="#000"
              stroke-width="1.8" stroke-miterlimit="10" pointer-events="none"/>
        <rect x="828" y="279" width="19.8" height="12.6" fill-opacity="0"
              fill="#dae2f2" stroke="none" pointer-events="none"/>
        <g fill="#000000" font-family="Arial,Helvetica" font-weight="bold"
           text-anchor="middle" font-size="10.8px">
            <text x="837.9" y="288.9">
                U56
            </text>
        </g>
        <rect x="819" y="216" width="35.1" height="11.7" fill-opacity="0"
              fill="#dae2f2" stroke="none" pointer-events="none"/>
        <g fill="#000000" font-family="Arial,Helvetica" font-weight="bold"
           text-anchor="middle" font-size="10.8px">
            <text x="836.55" y="225.45">
                Combel
            </text>
        </g>
        <rect x="656.1" y="197.1" width="1.8" height="1.8" fill="#000000"
              stroke="none"
              transform="translate(0,225)scale(1,-1)translate(0,-225)rotate(-270,657,225)"
              pointer-events="none"/>
        <rect x="656.1" y="251.1" width="1.8" height="1.8" fill="#000000"
              stroke="none"
              transform="translate(0,225)scale(1,-1)translate(0,-225)rotate(-270,657,225)"
              pointer-events="none"/>
        <path d="M 657 198.9 L 657 207.9" fill="#000000" stroke="#000000"
              stroke-width="1.8" stroke-linecap="square" stroke-miterlimit="10"
              transform="translate(0,225)scale(1,-1)translate(0,-225)rotate(-270,657,225)"
              pointer-events="none"/>
        <path d="M 657 242.1 L 657 251.1" fill="#000000" stroke="#000000"
              stroke-width="1.8" stroke-linecap="square" stroke-miterlimit="10"
              transform="translate(0,225)scale(1,-1)translate(0,-225)rotate(-270,657,225)"
              pointer-events="none"/>
        <path d="M 650.7 208.8 C 662.75 208.64 663.3 208.8 663.3 208.8 L 663.3 241.2 L 650.7 241.2 Z"
              fill="#ffffff" stroke="#000000" stroke-width="1.8"
              stroke-linejoin="round" stroke-linecap="round"
              stroke-miterlimit="10"
              transform="translate(0,225)scale(1,-1)translate(0,-225)rotate(-270,657,225)"
              pointer-events="none"/>
        <rect x="648" y="234" width="18.9" height="11.7" fill-opacity="0"
              fill="#dae2f2" stroke="none" pointer-events="none"/>
        <g fill="#000000" font-family="Arial,Helvetica" font-weight="bold"
           text-anchor="middle" font-size="10.8px">
            <text x="657.45" y="243.45">
                R21
            </text>
        </g>
        <path d="M 792 225 L 688.02 225" fill="none" stroke="#000000"
              stroke-width="1.8" stroke-miterlimit="10" pointer-events="none"/>
        <path d="M 691.41 222.3 L 686.01 225 L 691.41 227.7" fill="none"
              stroke="#000000" stroke-width="1.8" stroke-miterlimit="10"
              pointer-events="none"/>
        <g fill="#000000" font-family="Arial,Helvetica" text-anchor="middle"
           font-size="9.9px">
            <rect fill="#FFFFFF" stroke="none" x="705" y="210" width="84"
                  height="13" stroke-width="0"/>
            <text x="747" y="219.15">
                #191 (CPUCLKO)
            </text>
        </g>
        <rect x="521.1" y="242.1" width="1.8" height="1.8" fill="#000000"
              stroke="none"
              transform="translate(0,270)scale(1,-1)translate(0,-270)rotate(-180,522,270)"
              pointer-events="none"/>
        <rect x="521.1" y="296.1" width="1.8" height="1.8" fill="#000000"
              stroke="none"
              transform="translate(0,270)scale(1,-1)translate(0,-270)rotate(-180,522,270)"
              pointer-events="none"/>
        <path d="M 522 243.9 L 522 252.9" fill="#000000" stroke="#000000"
              stroke-width="1.8" stroke-linecap="square" stroke-miterlimit="10"
              transform="translate(0,270)scale(1,-1)translate(0,-270)rotate(-180,522,270)"
              pointer-events="none"/>
        <path d="M 522 287.1 L 522 296.1" fill="#000000" stroke="#000000"
              stroke-width="1.8" stroke-linecap="square" stroke-miterlimit="10"
              transform="translate(0,270)scale(1,-1)translate(0,-270)rotate(-180,522,270)"
              pointer-events="none"/>
        <path d="M 515.7 253.8 C 527.75 253.64 528.3 253.8 528.3 253.8 L 528.3 286.2 L 515.7 286.2 Z"
              fill="#ffffff" stroke="#000000" stroke-width="1.8"
              stroke-linejoin="round" stroke-linecap="round"
              stroke-miterlimit="10"
              transform="translate(0,270)scale(1,-1)translate(0,-270)rotate(-180,522,270)"
              pointer-events="none"/>
        <rect x="531" y="288" width="24.3" height="11.7" fill-opacity="0"
              fill="#dae2f2" stroke="none" pointer-events="none"/>
        <g fill="#000000" font-family="Arial,Helvetica" font-weight="bold"
           text-anchor="middle" font-size="10.8px">
            <text x="543.15" y="297.45">
                R217
            </text>
        </g>
        <path d="M 630 225 L 522 225 L 522 243" fill="none" stroke="#000000"
              stroke-width="1.8" stroke-miterlimit="10" pointer-events="none"/>
        <path d="M 612 234 L 612 226.8" fill="none" stroke="#000000"
              stroke-width="1.8" stroke-miterlimit="10" pointer-events="none"/>
        <ellipse cx="612" cy="225" rx="1.8" ry="1.8" fill="#000000"
                 stroke="#000000" stroke-width="1.8" pointer-events="none"/>
        <rect x="225" y="135" width="153" height="18" fill="#6ccefb"
              stroke="#000" pointer-events="none"/>
        <path d="M 378 137.52 L 378 137.52" fill="none" stroke="#000"
              stroke-miterlimit="10" pointer-events="none"/>
        <path d="M 378 140.04 L 378 140.04" fill="none" stroke="#000"
              stroke-miterlimit="10" pointer-events="none"/>
        <path d="M 378 142.56 L 378 142.56" fill="none" stroke="#000"
              stroke-miterlimit="10" pointer-events="none"/>
        <path d="M 378 145.08 L 378 145.08" fill="none" stroke="#000"
              stroke-miterlimit="10" pointer-events="none"/>
        <path d="M 378 147.6 L 378 147.6" fill="none" stroke="#000"
              stroke-miterlimit="10" pointer-events="none"/>
        <path d="M 378 150.12 L 378 150.12" fill="none" stroke="#000"
              stroke-miterlimit="10" pointer-events="none"/>
        <path d="M 356.58 153 L 356.58 153" fill="none" stroke="#000"
              stroke-miterlimit="10" pointer-events="none"/>
        <path d="M 335.16 153 L 335.16 153" fill="none" stroke="#000"
              stroke-miterlimit="10" pointer-events="none"/>
        <path d="M 313.74 153 L 313.74 153" fill="none" stroke="#000"
              stroke-miterlimit="10" pointer-events="none"/>
        <path d="M 292.32 153 L 292.32 153" fill="none" stroke="#000"
              stroke-miterlimit="10" pointer-events="none"/>
        <path d="M 270.9 153 L 270.9 153" fill="none" stroke="#000"
              stroke-miterlimit="10" pointer-events="none"/>
        <path d="M 249.48 153 L 249.48 153" fill="none" stroke="#000"
              stroke-miterlimit="10" pointer-events="none"/>
        <path d="M 225 150.48 L 225 150.48" fill="none" stroke="#000"
              stroke-miterlimit="10" pointer-events="none"/>
        <path d="M 225 147.96 L 225 147.96" fill="none" stroke="#000"
              stroke-miterlimit="10" pointer-events="none"/>
        <path d="M 225 145.44 L 225 145.44" fill="none" stroke="#000"
              stroke-miterlimit="10" pointer-events="none"/>
        <path d="M 225 142.92 L 225 142.92" fill="none" stroke="#000"
              stroke-miterlimit="10" pointer-events="none"/>
        <path d="M 225 140.4 L 225 140.4" fill="none" stroke="#000"
              stroke-miterlimit="10" pointer-events="none"/>
        <path d="M 225 137.88 L 225 137.88" fill="none" stroke="#000"
              stroke-miterlimit="10" pointer-events="none"/>
        <path d="M 246.42 135 L 246.42 135" fill="none" stroke="#000"
              stroke-miterlimit="10" pointer-events="none"/>
        <path d="M 267.84 135 L 267.84 135" fill="none" stroke="#000"
              stroke-miterlimit="10" pointer-events="none"/>
        <path d="M 289.26 135 L 289.26 135" fill="none" stroke="#000"
              stroke-miterlimit="10" pointer-events="none"/>
        <path d="M 310.68 135 L 310.68 135" fill="none" stroke="#000"
              stroke-miterlimit="10" pointer-events="none"/>
        <path d="M 332.1 135 L 332.1 135" fill="none" stroke="#000"
              stroke-miterlimit="10" pointer-events="none"/>
        <path d="M 353.52 135 L 353.52 135" fill="none" stroke="#000"
              stroke-miterlimit="10" pointer-events="none"/>
        <rect x="288" y="162" width="17.1" height="12.6" fill-opacity="0"
              fill="#dae2f2" stroke="none" pointer-events="none"/>
        <g fill="#000000" font-family="Arial,Helvetica" font-weight="bold"
           text-anchor="middle" font-size="10.8px">
            <text x="296.55" y="171.9">
                J16
            </text>
        </g>
        <rect x="270" y="135" width="66.6" height="11.7" fill-opacity="0"
              fill="#dae2f2" stroke="none" pointer-events="none"/>
        <g fill="#000000" font-family="Arial,Helvetica" font-weight="bold"
           text-anchor="middle" font-size="10.8px">
            <text x="303.3" y="144.45">
                Expansion slot
            </text>
        </g>
        <path d="M 378 306 L 378 243 Q 378 234 369 234 L 333 234 Q 324 234 324 225 L 324 157.02"
              fill="none" stroke="#000000" stroke-width="1.8"
              stroke-miterlimit="10" pointer-events="none"/>
        <path d="M 326.7 160.41 L 324 155.01 L 321.3 160.41" fill="none"
              stroke="#000000" stroke-width="1.8" stroke-miterlimit="10"
              pointer-events="none"/>
        <g fill="#000000" font-family="Arial,Helvetica" text-anchor="middle"
           font-size="9.9px">
            <rect fill="#FFFFFF" stroke="none" x="336" y="156" width="78"
                  height="13" stroke-width="0"/>
            <text x="374.4" y="165.15">
                #23 (CPUCLKC)
            </text>
        </g>
        <rect x="81" y="252" width="99" height="18" fill="#6ccefb" stroke="#000"
              pointer-events="none"/>
        <path d="M 180 254.52 L 180 254.52" fill="none" stroke="#000"
              stroke-miterlimit="10" pointer-events="none"/>
        <path d="M 180 257.04 L 180 257.04" fill="none" stroke="#000"
              stroke-miterlimit="10" pointer-events="none"/>
        <path d="M 180 259.56 L 180 259.56" fill="none" stroke="#000"
              stroke-miterlimit="10" pointer-events="none"/>
        <path d="M 180 262.08 L 180 262.08" fill="none" stroke="#000"
              stroke-miterlimit="10" pointer-events="none"/>
        <path d="M 180 264.6 L 180 264.6" fill="none" stroke="#000"
              stroke-miterlimit="10" pointer-events="none"/>
        <path d="M 180 267.12 L 180 267.12" fill="none" stroke="#000"
              stroke-miterlimit="10" pointer-events="none"/>
        <path d="M 166.14 270 L 166.14 270" fill="none" stroke="#000"
              stroke-miterlimit="10" pointer-events="none"/>
        <path d="M 152.28 270 L 152.28 270" fill="none" stroke="#000"
              stroke-miterlimit="10" pointer-events="none"/>
        <path d="M 138.42 270 L 138.42 270" fill="none" stroke="#000"
              stroke-miterlimit="10" pointer-events="none"/>
        <path d="M 124.56 270 L 124.56 270" fill="none" stroke="#000"
              stroke-miterlimit="10" pointer-events="none"/>
        <path d="M 110.7 270 L 110.7 270" fill="none" stroke="#000"
              stroke-miterlimit="10" pointer-events="none"/>
        <path d="M 96.84 270 L 96.84 270" fill="none" stroke="#000"
              stroke-miterlimit="10" pointer-events="none"/>
        <path d="M 81 267.48 L 81 267.48" fill="none" stroke="#000"
              stroke-miterlimit="10" pointer-events="none"/>
        <path d="M 81 264.96 L 81 264.96" fill="none" stroke="#000"
              stroke-miterlimit="10" pointer-events="none"/>
        <path d="M 81 262.44 L 81 262.44" fill="none" stroke="#000"
              stroke-miterlimit="10" pointer-events="none"/>
        <path d="M 81 259.92 L 81 259.92" fill="none" stroke="#000"
              stroke-miterlimit="10" pointer-events="none"/>
        <path d="M 81 257.4 L 81 257.4" fill="none" stroke="#000"
              stroke-miterlimit="10" pointer-events="none"/>
        <path d="M 81 254.88 L 81 254.88" fill="none" stroke="#000"
              stroke-miterlimit="10" pointer-events="none"/>
        <path d="M 94.86 252 L 94.86 252" fill="none" stroke="#000"
              stroke-miterlimit="10" pointer-events="none"/>
        <path d="M 108.72 252 L 108.72 252" fill="none" stroke="#000"
              stroke-miterlimit="10" pointer-events="none"/>
        <path d="M 122.58 252 L 122.58 252" fill="none" stroke="#000"
              stroke-miterlimit="10" pointer-events="none"/>
        <path d="M 136.44 252 L 136.44 252" fill="none" stroke="#000"
              stroke-miterlimit="10" pointer-events="none"/>
        <path d="M 150.3 252 L 150.3 252" fill="none" stroke="#000"
              stroke-miterlimit="10" pointer-events="none"/>
        <path d="M 164.16 252 L 164.16 252" fill="none" stroke="#000"
              stroke-miterlimit="10" pointer-events="none"/>
        <rect x="117" y="279" width="16.2" height="11.7" fill-opacity="0"
              fill="#dae2f2" stroke="none" pointer-events="none"/>
        <g fill="#000000" font-family="Arial,Helvetica" font-weight="bold"
           text-anchor="middle" font-size="10.8px">
            <text x="125.1" y="288.45">
                J20
            </text>
        </g>
        <rect x="99" y="252" width="66.6" height="11.7" fill-opacity="0"
              fill="#dae2f2" stroke="none" pointer-events="none"/>
        <g fill="#000000" font-family="Arial,Helvetica" font-weight="bold"
           text-anchor="middle" font-size="10.8px">
            <text x="132.3" y="261.45">
                Expansion slot
            </text>
        </g>
        <rect x="270" y="0" width="90" height="90" fill="#6ccefb" stroke="#000"
              stroke-width="2.7" pointer-events="none"/>
        <path d="M 360 12.6 L 360 12.6" fill="none" stroke="#000"
              stroke-width="1.8" stroke-miterlimit="10" pointer-events="none"/>
        <path d="M 360 25.2 L 360 25.2" fill="none" stroke="#000"
              stroke-width="1.8" stroke-miterlimit="10" pointer-events="none"/>
        <path d="M 360 37.8 L 360 37.8" fill="none" stroke="#000"
              stroke-width="1.8" stroke-miterlimit="10" pointer-events="none"/>
        <path d="M 360 50.4 L 360 50.4" fill="none" stroke="#000"
              stroke-width="1.8" stroke-miterlimit="10" pointer-events="none"/>
        <path d="M 360 63 L 360 63" fill="none" stroke="#000" stroke-width="1.8"
              stroke-miterlimit="10" pointer-events="none"/>
        <path d="M 360 75.6 L 360 75.6" fill="none" stroke="#000"
              stroke-width="1.8" stroke-miterlimit="10" pointer-events="none"/>
        <path d="M 347.4 90 L 347.4 90" fill="none" stroke="#000"
              stroke-width="1.8" stroke-miterlimit="10" pointer-events="none"/>
        <path d="M 334.8 90 L 334.8 90" fill="none" stroke="#000"
              stroke-width="1.8" stroke-miterlimit="10" pointer-events="none"/>
        <path d="M 322.2 90 L 322.2 90" fill="none" stroke="#000"
              stroke-width="1.8" stroke-miterlimit="10" pointer-events="none"/>
        <path d="M 309.6 90 L 309.6 90" fill="none" stroke="#000"
              stroke-width="1.8" stroke-miterlimit="10" pointer-events="none"/>
        <path d="M 297 90 L 297 90" fill="none" stroke="#000" stroke-width="1.8"
              stroke-miterlimit="10" pointer-events="none"/>
        <path d="M 284.4 90 L 284.4 90" fill="none" stroke="#000"
              stroke-width="1.8" stroke-miterlimit="10" pointer-events="none"/>
        <path d="M 270 77.4 L 270 77.4" fill="none" stroke="#000"
              stroke-width="1.8" stroke-miterlimit="10" pointer-events="none"/>
        <path d="M 270 64.8 L 270 64.8" fill="none" stroke="#000"
              stroke-width="1.8" stroke-miterlimit="10" pointer-events="none"/>
        <path d="M 270 52.2 L 270 52.2" fill="none" stroke="#000"
              stroke-width="1.8" stroke-miterlimit="10" pointer-events="none"/>
        <path d="M 270 39.6 L 270 39.6" fill="none" stroke="#000"
              stroke-width="1.8" stroke-miterlimit="10" pointer-events="none"/>
        <path d="M 270 27 L 270 27" fill="none" stroke="#000" stroke-width="1.8"
              stroke-miterlimit="10" pointer-events="none"/>
        <path d="M 270 14.4 L 270 14.4" fill="none" stroke="#000"
              stroke-width="1.8" stroke-miterlimit="10" pointer-events="none"/>
        <path d="M 282.6 0 L 282.6 0" fill="none" stroke="#000"
              stroke-width="1.8" stroke-miterlimit="10" pointer-events="none"/>
        <path d="M 295.2 0 L 295.2 0" fill="none" stroke="#000"
              stroke-width="1.8" stroke-miterlimit="10" pointer-events="none"/>
        <path d="M 307.8 0 L 307.8 0" fill="none" stroke="#000"
              stroke-width="1.8" stroke-miterlimit="10" pointer-events="none"/>
        <path d="M 320.4 0 L 320.4 0" fill="none" stroke="#000"
              stroke-width="1.8" stroke-miterlimit="10" pointer-events="none"/>
        <path d="M 333 0 L 333 0" fill="none" stroke="#000" stroke-width="1.8"
              stroke-miterlimit="10" pointer-events="none"/>
        <path d="M 345.6 0 L 345.6 0" fill="none" stroke="#000"
              stroke-width="1.8" stroke-miterlimit="10" pointer-events="none"/>
        <rect x="306" y="99" width="18.9" height="11.7" fill-opacity="0"
              fill="#dae2f2" stroke="none" pointer-events="none"/>
        <g fill="#000000" font-family="Arial,Helvetica" font-weight="bold"
           text-anchor="middle" font-size="10.8px">
            <text x="315.45" y="108.45">
                U33
            </text>
        </g>
        <rect x="306" y="36" width="20.7" height="11.7" fill-opacity="0"
              fill="#dae2f2" stroke="none" pointer-events="none"/>
        <g fill="#000000" font-family="Arial,Helvetica" font-weight="bold"
           text-anchor="middle" font-size="10.8px">
            <text x="316.35" y="45.45">
                FPU
            </text>
        </g>
        <rect x="1215" y="90" width="90" height="90" fill="#6ccefb"
              stroke="#000" stroke-width="2.7" pointer-events="none"/>
        <path d="M 1305 102.6 L 1305 102.6" fill="none" stroke="#000"
              stroke-width="1.8" stroke-miterlimit="10" pointer-events="none"/>
        <path d="M 1305 115.2 L 1305 115.2" fill="none" stroke="#000"
              stroke-width="1.8" stroke-miterlimit="10" pointer-events="none"/>
        <path d="M 1305 127.8 L 1305 127.8" fill="none" stroke="#000"
              stroke-width="1.8" stroke-miterlimit="10" pointer-events="none"/>
        <path d="M 1305 140.4 L 1305 140.4" fill="none" stroke="#000"
              stroke-width="1.8" stroke-miterlimit="10" pointer-events="none"/>
        <path d="M 1305 153 L 1305 153" fill="none" stroke="#000"
              stroke-width="1.8" stroke-miterlimit="10" pointer-events="none"/>
        <path d="M 1305 165.6 L 1305 165.6" fill="none" stroke="#000"
              stroke-width="1.8" stroke-miterlimit="10" pointer-events="none"/>
        <path d="M 1292.4 180 L 1292.4 180" fill="none" stroke="#000"
              stroke-width="1.8" stroke-miterlimit="10" pointer-events="none"/>
        <path d="M 1279.8 180 L 1279.8 180" fill="none" stroke="#000"
              stroke-width="1.8" stroke-miterlimit="10" pointer-events="none"/>
        <path d="M 1267.2 180 L 1267.2 180" fill="none" stroke="#000"
              stroke-width="1.8" stroke-miterlimit="10" pointer-events="none"/>
        <path d="M 1254.6 180 L 1254.6 180" fill="none" stroke="#000"
              stroke-width="1.8" stroke-miterlimit="10" pointer-events="none"/>
        <path d="M 1242 180 L 1242 180" fill="none" stroke="#000"
              stroke-width="1.8" stroke-miterlimit="10" pointer-events="none"/>
        <path d="M 1229.4 180 L 1229.4 180" fill="none" stroke="#000"
              stroke-width="1.8" stroke-miterlimit="10" pointer-events="none"/>
        <path d="M 1215 167.4 L 1215 167.4" fill="none" stroke="#000"
              stroke-width="1.8" stroke-miterlimit="10" pointer-events="none"/>
        <path d="M 1215 154.8 L 1215 154.8" fill="none" stroke="#000"
              stroke-width="1.8" stroke-miterlimit="10" pointer-events="none"/>
        <path d="M 1215 142.2 L 1215 142.2" fill="none" stroke="#000"
              stroke-width="1.8" stroke-miterlimit="10" pointer-events="none"/>
        <path d="M 1215 129.6 L 1215 129.6" fill="none" stroke="#000"
              stroke-width="1.8" stroke-miterlimit="10" pointer-events="none"/>
        <path d="M 1215 117 L 1215 117" fill="none" stroke="#000"
              stroke-width="1.8" stroke-miterlimit="10" pointer-events="none"/>
        <path d="M 1215 104.4 L 1215 104.4" fill="none" stroke="#000"
              stroke-width="1.8" stroke-miterlimit="10" pointer-events="none"/>
        <path d="M 1227.6 90 L 1227.6 90" fill="none" stroke="#000"
              stroke-width="1.8" stroke-miterlimit="10" pointer-events="none"/>
        <path d="M 1240.2 90 L 1240.2 90" fill="none" stroke="#000"
              stroke-width="1.8" stroke-miterlimit="10" pointer-events="none"/>
        <path d="M 1252.8 90 L 1252.8 90" fill="none" stroke="#000"
              stroke-width="1.8" stroke-miterlimit="10" pointer-events="none"/>
        <path d="M 1265.4 90 L 1265.4 90" fill="none" stroke="#000"
              stroke-width="1.8" stroke-miterlimit="10" pointer-events="none"/>
        <path d="M 1278 90 L 1278 90" fill="none" stroke="#000"
              stroke-width="1.8" stroke-miterlimit="10" pointer-events="none"/>
        <path d="M 1290.6 90 L 1290.6 90" fill="none" stroke="#000"
              stroke-width="1.8" stroke-miterlimit="10" pointer-events="none"/>
        <rect x="1251" y="189" width="18.9" height="11.7" fill-opacity="0"
              fill="#dae2f2" stroke="none" pointer-events="none"/>
        <g fill="#000000" font-family="Arial,Helvetica" font-weight="bold"
           text-anchor="middle" font-size="10.8px">
            <text x="1260.45" y="198.45">
                U36
            </text>
        </g>
        <rect x="1242" y="126" width="29.7" height="11.7" fill-opacity="0"
              fill="#dae2f2" stroke="none" pointer-events="none"/>
        <g fill="#000000" font-family="Arial,Helvetica" font-weight="bold"
           text-anchor="middle" font-size="10.8px">
            <text x="1256.85" y="135.45">
                SDMA
            </text>
        </g>
        <path d="M 432 108 L 1192.98 108" fill="none" stroke="#000000"
              stroke-width="1.8" stroke-miterlimit="10" pointer-events="none"/>
        <path d="M 1189.59 110.7 L 1194.99 108 L 1189.59 105.3" fill="none"
              stroke="#000000" stroke-width="1.8" stroke-miterlimit="10"
              pointer-events="none"/>
        <g fill="#000000" font-family="Arial,Helvetica" text-anchor="middle"
           font-size="9.9px">
            <rect fill="#FFFFFF" stroke="none" x="1114" y="93" width="83"
                  height="13" stroke-width="0"/>
            <text x="1155" y="102.15">
                #110 (CPUCLKA)
            </text>
        </g>
        <rect x="207" y="180" width="90" height="90" fill="#6ccefb"
              stroke="#000" stroke-width="2.7" pointer-events="none"/>
        <path d="M 297 192.6 L 297 192.6" fill="none" stroke="#000"
              stroke-width="1.8" stroke-miterlimit="10" pointer-events="none"/>
        <path d="M 297 205.2 L 297 205.2" fill="none" stroke="#000"
              stroke-width="1.8" stroke-miterlimit="10" pointer-events="none"/>
        <path d="M 297 217.8 L 297 217.8" fill="none" stroke="#000"
              stroke-width="1.8" stroke-miterlimit="10" pointer-events="none"/>
        <path d="M 297 230.4 L 297 230.4" fill="none" stroke="#000"
              stroke-width="1.8" stroke-miterlimit="10" pointer-events="none"/>
        <path d="M 297 243 L 297 243" fill="none" stroke="#000"
              stroke-width="1.8" stroke-miterlimit="10" pointer-events="none"/>
        <path d="M 297 255.6 L 297 255.6" fill="none" stroke="#000"
              stroke-width="1.8" stroke-miterlimit="10" pointer-events="none"/>
        <path d="M 284.4 270 L 284.4 270" fill="none" stroke="#000"
              stroke-width="1.8" stroke-miterlimit="10" pointer-events="none"/>
        <path d="M 271.8 270 L 271.8 270" fill="none" stroke="#000"
              stroke-width="1.8" stroke-miterlimit="10" pointer-events="none"/>
        <path d="M 259.2 270 L 259.2 270" fill="none" stroke="#000"
              stroke-width="1.8" stroke-miterlimit="10" pointer-events="none"/>
        <path d="M 246.6 270 L 246.6 270" fill="none" stroke="#000"
              stroke-width="1.8" stroke-miterlimit="10" pointer-events="none"/>
        <path d="M 234 270 L 234 270" fill="none" stroke="#000"
              stroke-width="1.8" stroke-miterlimit="10" pointer-events="none"/>
        <path d="M 221.4 270 L 221.4 270" fill="none" stroke="#000"
              stroke-width="1.8" stroke-miterlimit="10" pointer-events="none"/>
        <path d="M 207 257.4 L 207 257.4" fill="none" stroke="#000"
              stroke-width="1.8" stroke-miterlimit="10" pointer-events="none"/>
        <path d="M 207 244.8 L 207 244.8" fill="none" stroke="#000"
              stroke-width="1.8" stroke-miterlimit="10" pointer-events="none"/>
        <path d="M 207 232.2 L 207 232.2" fill="none" stroke="#000"
              stroke-width="1.8" stroke-miterlimit="10" pointer-events="none"/>
        <path d="M 207 219.6 L 207 219.6" fill="none" stroke="#000"
              stroke-width="1.8" stroke-miterlimit="10" pointer-events="none"/>
        <path d="M 207 207 L 207 207" fill="none" stroke="#000"
              stroke-width="1.8" stroke-miterlimit="10" pointer-events="none"/>
        <path d="M 207 194.4 L 207 194.4" fill="none" stroke="#000"
              stroke-width="1.8" stroke-miterlimit="10" pointer-events="none"/>
        <path d="M 219.6 180 L 219.6 180" fill="none" stroke="#000"
              stroke-width="1.8" stroke-miterlimit="10" pointer-events="none"/>
        <path d="M 232.2 180 L 232.2 180" fill="none" stroke="#000"
              stroke-width="1.8" stroke-miterlimit="10" pointer-events="none"/>
        <path d="M 244.8 180 L 244.8 180" fill="none" stroke="#000"
              stroke-width="1.8" stroke-miterlimit="10" pointer-events="none"/>
        <path d="M 257.4 180 L 257.4 180" fill="none" stroke="#000"
              stroke-width="1.8" stroke-miterlimit="10" pointer-events="none"/>
        <path d="M 270 180 L 270 180" fill="none" stroke="#000"
              stroke-width="1.8" stroke-miterlimit="10" pointer-events="none"/>
        <path d="M 282.6 180 L 282.6 180" fill="none" stroke="#000"
              stroke-width="1.8" stroke-miterlimit="10" pointer-events="none"/>
        <rect x="243" y="279" width="18.9" height="11.7" fill-opacity="0"
              fill="#dae2f2" stroke="none" pointer-events="none"/>
        <g fill="#000000" font-family="Arial,Helvetica" font-weight="bold"
           text-anchor="middle" font-size="10.8px">
            <text x="252.45" y="288.45">
                U55
            </text>
        </g>
        <rect x="234" y="225" width="21.6" height="11.7" fill-opacity="0"
              fill="#dae2f2" stroke="none" pointer-events="none"/>
        <g fill="#000000" font-family="Arial,Helvetica" font-weight="bold"
           text-anchor="middle" font-size="10.8px">
            <text x="244.8" y="234.45">
                CPU
            </text>
        </g>
        <path d="M 364.02 45 L 423 45 Q 432 45 432 54 L 432 306" fill="none"
              stroke="#000000" stroke-width="1.8" stroke-miterlimit="10"
              pointer-events="none"/>
        <path d="M 367.41 42.3 L 362.01 45 L 367.41 47.7" fill="none"
              stroke="#000000" stroke-width="1.8" stroke-miterlimit="10"
              pointer-events="none"/>
        <g fill="#000000" font-family="Arial,Helvetica" text-anchor="middle"
           font-size="9.9px">
            <rect fill="#FFFFFF" stroke="none" x="367" y="30" width="77"
                  height="13" stroke-width="0"/>
            <text x="405" y="39.15">
                #11 (CPUCLKA)
            </text>
        </g>
        <path d="M 486 360 L 486 364.5 Q 486 369 477 369 L 288 369 Q 279 369 279 360 L 279 274.02"
              fill="none" stroke="#000000" stroke-width="1.8"
              stroke-miterlimit="10" pointer-events="none"/>
        <path d="M 281.7 277.41 L 279 272.01 L 276.3 277.41" fill="none"
              stroke="#000000" stroke-width="1.8" stroke-miterlimit="10"
              pointer-events="none"/>
        <g fill="#000000" font-family="Arial,Helvetica" text-anchor="middle"
           font-size="9.9px">
            <rect fill="#FFFFFF" stroke="none" x="289" y="273" width="72"
                  height="13" stroke-width="0"/>
            <text x="324" y="282.15">
                #6 (CPUCLKB)
            </text>
        </g>
        <rect x="1205.1" y="98.1" width="1.8" height="1.8" fill="#000000"
              stroke="none" transform="rotate(270,1206,108)"
              pointer-events="none"/>
        <path d="M 1206 99.9 L 1206 116.1" fill="#000000" stroke="#000000"
              stroke-width="1.8" stroke-linecap="square" stroke-miterlimit="10"
              transform="rotate(270,1206,108)" pointer-events="none"/>
        <rect x="1214.1" y="26.1" width="1.8" height="1.8" fill="#000000"
              stroke="none" transform="rotate(270,1215,45)"
              pointer-events="none"/>
        <path d="M 1205.1 45.9 C 1224.92 45.9 1224.92 45.9 1224.92 45.9"
              fill="none" stroke="#000000" stroke-width="1.8"
              stroke-linecap="round" stroke-miterlimit="10"
              transform="rotate(270,1215,45)" pointer-events="none"/>
        <path d="M 1208.7 51.3 C 1217.31 51.3 1221.3 51.3 1221.3 51.3"
              fill="none" stroke="#000000" stroke-width="1.8"
              stroke-linecap="round" stroke-miterlimit="10"
              transform="rotate(270,1215,45)" pointer-events="none"/>
        <path d="M 1212.3 56.7 C 1215.11 56.7 1217.7 56.7 1217.7 56.7"
              fill="none" stroke="#000000" stroke-width="1.8"
              stroke-linecap="round" stroke-miterlimit="10"
              transform="rotate(270,1215,45)" pointer-events="none"/>
        <path d="M 1215 27.9 L 1215 44.1" fill="#000000" stroke="#000000"
              stroke-width="1.8" stroke-linecap="square" stroke-miterlimit="10"
              transform="rotate(270,1215,45)" pointer-events="none"/>
        <rect x="1196.1" y="44.1" width="1.8" height="1.8" fill="#000000"
              stroke="none"
              transform="translate(0,72)scale(1,-1)translate(0,-72)rotate(-180,1197,72)"
              pointer-events="none"/>
        <rect x="1196.1" y="98.1" width="1.8" height="1.8" fill="#000000"
              stroke="none"
              transform="translate(0,72)scale(1,-1)translate(0,-72)rotate(-180,1197,72)"
              pointer-events="none"/>
        <path d="M 1197 45.9 L 1197 54.9" fill="#000000" stroke="#000000"
              stroke-width="1.8" stroke-linecap="square" stroke-miterlimit="10"
              transform="translate(0,72)scale(1,-1)translate(0,-72)rotate(-180,1197,72)"
              pointer-events="none"/>
        <path d="M 1197 89.1 L 1197 98.1" fill="#000000" stroke="#000000"
              stroke-width="1.8" stroke-linecap="square" stroke-miterlimit="10"
              transform="translate(0,72)scale(1,-1)translate(0,-72)rotate(-180,1197,72)"
              pointer-events="none"/>
        <path d="M 1190.7 55.8 C 1202.75 55.64 1203.3 55.8 1203.3 55.8 L 1203.3 88.2 L 1190.7 88.2 Z"
              fill="#ffffff" stroke="#000000" stroke-width="1.8"
              stroke-linejoin="round" stroke-linecap="round"
              stroke-miterlimit="10"
              transform="translate(0,72)scale(1,-1)translate(0,-72)rotate(-180,1197,72)"
              pointer-events="none"/>
        <rect x="1206" y="72" width="19.8" height="12.6" fill-opacity="0"
              fill="#dae2f2" stroke="none" pointer-events="none"/>
        <g fill="#000000" font-family="Arial,Helvetica" font-weight="bold"
           text-anchor="middle" font-size="10.8px">
            <text x="1215.9" y="81.9">
                47R
            </text>
        </g>
        <path d="M 1197 99 L 1197 106.2" fill="none" stroke="#000000"
              stroke-width="1.8" stroke-miterlimit="10" pointer-events="none"/>
        <ellipse cx="1197" cy="108" rx="1.8" ry="1.8" fill="#000000"
                 stroke="#000000" stroke-width="1.8" pointer-events="none"/>
        <rect x="377.1" y="305.1" width="1.8" height="1.8" fill="#000000"
              stroke="none"
              transform="translate(0,333)scale(1,-1)translate(0,-333)rotate(-180,378,333)"
              pointer-events="none"/>
        <rect x="377.1" y="359.1" width="1.8" height="1.8" fill="#000000"
              stroke="none"
              transform="translate(0,333)scale(1,-1)translate(0,-333)rotate(-180,378,333)"
              pointer-events="none"/>
        <path d="M 378 306.9 L 378 315.9" fill="#000000" stroke="#000000"
              stroke-width="1.8" stroke-linecap="square" stroke-miterlimit="10"
              transform="translate(0,333)scale(1,-1)translate(0,-333)rotate(-180,378,333)"
              pointer-events="none"/>
        <path d="M 378 350.1 L 378 359.1" fill="#000000" stroke="#000000"
              stroke-width="1.8" stroke-linecap="square" stroke-miterlimit="10"
              transform="translate(0,333)scale(1,-1)translate(0,-333)rotate(-180,378,333)"
              pointer-events="none"/>
        <path d="M 371.7 316.8 C 383.75 316.64 384.3 316.8 384.3 316.8 L 384.3 349.2 L 371.7 349.2 Z"
              fill="#ffffff" stroke="#000000" stroke-width="1.8"
              stroke-linejoin="round" stroke-linecap="round"
              stroke-miterlimit="10"
              transform="translate(0,333)scale(1,-1)translate(0,-333)rotate(-180,378,333)"
              pointer-events="none"/>
        <rect x="387" y="342" width="24.3" height="11.7" fill-opacity="0"
              fill="#dae2f2" stroke="none" pointer-events="none"/>
        <g fill="#000000" font-family="Arial,Helvetica" font-weight="bold"
           text-anchor="middle" font-size="10.8px">
            <text x="399.15" y="351.45">
                R216
            </text>
        </g>
        <rect x="431.1" y="305.1" width="1.8" height="1.8" fill="#000000"
              stroke="none"
              transform="translate(0,333)scale(1,-1)translate(0,-333)rotate(-180,432,333)"
              pointer-events="none"/>
        <rect x="431.1" y="359.1" width="1.8" height="1.8" fill="#000000"
              stroke="none"
              transform="translate(0,333)scale(1,-1)translate(0,-333)rotate(-180,432,333)"
              pointer-events="none"/>
        <path d="M 432 306.9 L 432 315.9" fill="#000000" stroke="#000000"
              stroke-width="1.8" stroke-linecap="square" stroke-miterlimit="10"
              transform="translate(0,333)scale(1,-1)translate(0,-333)rotate(-180,432,333)"
              pointer-events="none"/>
        <path d="M 432 350.1 L 432 359.1" fill="#000000" stroke="#000000"
              stroke-width="1.8" stroke-linecap="square" stroke-miterlimit="10"
              transform="translate(0,333)scale(1,-1)translate(0,-333)rotate(-180,432,333)"
              pointer-events="none"/>
        <path d="M 425.7 316.8 C 437.75 316.64 438.3 316.8 438.3 316.8 L 438.3 349.2 L 425.7 349.2 Z"
              fill="#ffffff" stroke="#000000" stroke-width="1.8"
              stroke-linejoin="round" stroke-linecap="round"
              stroke-miterlimit="10"
              transform="translate(0,333)scale(1,-1)translate(0,-333)rotate(-180,432,333)"
              pointer-events="none"/>
        <rect x="441" y="342" width="24.3" height="11.7" fill-opacity="0"
              fill="#dae2f2" stroke="none" pointer-events="none"/>
        <g fill="#000000" font-family="Arial,Helvetica" font-weight="bold"
           text-anchor="middle" font-size="10.8px">
            <text x="453.15" y="351.45">
                R221
            </text>
        </g>
        <path d="M 378 360 L 430.2 360" fill="none" stroke="#000000"
              stroke-width="1.8" stroke-miterlimit="10" pointer-events="none"/>
        <ellipse cx="432" cy="360" rx="1.8" ry="1.8" fill="#000000"
                 stroke="#000000" stroke-width="1.8" pointer-events="none"/>
        <rect x="485.1" y="305.1" width="1.8" height="1.8" fill="#000000"
              stroke="none"
              transform="translate(0,333)scale(1,-1)translate(0,-333)rotate(-180,486,333)"
              pointer-events="none"/>
        <rect x="485.1" y="359.1" width="1.8" height="1.8" fill="#000000"
              stroke="none"
              transform="translate(0,333)scale(1,-1)translate(0,-333)rotate(-180,486,333)"
              pointer-events="none"/>
        <path d="M 486 306.9 L 486 315.9" fill="#000000" stroke="#000000"
              stroke-width="1.8" stroke-linecap="square" stroke-miterlimit="10"
              transform="translate(0,333)scale(1,-1)translate(0,-333)rotate(-180,486,333)"
              pointer-events="none"/>
        <path d="M 486 350.1 L 486 359.1" fill="#000000" stroke="#000000"
              stroke-width="1.8" stroke-linecap="square" stroke-miterlimit="10"
              transform="translate(0,333)scale(1,-1)translate(0,-333)rotate(-180,486,333)"
              pointer-events="none"/>
        <path d="M 479.7 316.8 C 491.75 316.64 492.3 316.8 492.3 316.8 L 492.3 349.2 L 479.7 349.2 Z"
              fill="#ffffff" stroke="#000000" stroke-width="1.8"
              stroke-linejoin="round" stroke-linecap="round"
              stroke-miterlimit="10"
              transform="translate(0,333)scale(1,-1)translate(0,-333)rotate(-180,486,333)"
              pointer-events="none"/>
        <rect x="495" y="342" width="24.3" height="11.7" fill-opacity="0"
              fill="#dae2f2" stroke="none" pointer-events="none"/>
        <g fill="#000000" font-family="Arial,Helvetica" font-weight="bold"
           text-anchor="middle" font-size="10.8px">
            <text x="507.15" y="351.45">
                R222
            </text>
        </g>
        <path d="M 522 297 L 522 297 L 468 297 L 468 360 L 433.8 360"
              fill="none" stroke="#000000" stroke-width="1.8"
              stroke-miterlimit="10" pointer-events="none"/>
        <ellipse cx="432" cy="360" rx="1.8" ry="1.8" fill="#000000"
                 stroke="#000000" stroke-width="1.8" pointer-events="none"/>
        <path d="M 486 306 L 486 297 L 486 298.8" fill="none" stroke="#000000"
              stroke-width="1.8" stroke-miterlimit="10" pointer-events="none"/>
        <ellipse cx="486" cy="297" rx="1.8" ry="1.8" fill="#000000"
                 stroke="#000000" stroke-width="1.8" pointer-events="none"/>
    </g>
</svg>