
<svg xmlns="http://www.w3.org/2000/svg"
     xmlns:xlink="http://www.w3.org/1999/xlink" version="1.1" width="649"
     height="178">
    <defs/>
    <g transform=" scale(0.82) translate(-40.75,4.25)">
        <rect x="440" y="100" width="50" height="50" fill="#6ccefb"
              stroke="#000" stroke-width="1.5" pointer-events="none"/>
        <path d="M 490 107 L 490 107" fill="none" stroke="#000"
              stroke-miterlimit="10" pointer-events="none"/>
        <path d="M 490 114 L 490 114" fill="none" stroke="#000"
              stroke-miterlimit="10" pointer-events="none"/>
        <path d="M 490 121 L 490 121" fill="none" stroke="#000"
              stroke-miterlimit="10" pointer-events="none"/>
        <path d="M 490 128 L 490 128" fill="none" stroke="#000"
              stroke-miterlimit="10" pointer-events="none"/>
        <path d="M 490 135 L 490 135" fill="none" stroke="#000"
              stroke-miterlimit="10" pointer-events="none"/>
        <path d="M 490 142 L 490 142" fill="none" stroke="#000"
              stroke-miterlimit="10" pointer-events="none"/>
        <path d="M 483 150 L 483 150" fill="none" stroke="#000"
              stroke-miterlimit="10" pointer-events="none"/>
        <path d="M 476 150 L 476 150" fill="none" stroke="#000"
              stroke-miterlimit="10" pointer-events="none"/>
        <path d="M 469 150 L 469 150" fill="none" stroke="#000"
              stroke-miterlimit="10" pointer-events="none"/>
        <path d="M 462 150 L 462 150" fill="none" stroke="#000"
              stroke-miterlimit="10" pointer-events="none"/>
        <path d="M 455 150 L 455 150" fill="none" stroke="#000"
              stroke-miterlimit="10" pointer-events="none"/>
        <path d="M 448 150 L 448 150" fill="none" stroke="#000"
              stroke-miterlimit="10" pointer-events="none"/>
        <path d="M 440 143 L 440 143" fill="none" stroke="#000"
              stroke-miterlimit="10" pointer-events="none"/>
        <path d="M 440 136 L 440 136" fill="none" stroke="#000"
              stroke-miterlimit="10" pointer-events="none"/>
        <path d="M 440 129 L 440 129" fill="none" stroke="#000"
              stroke-miterlimit="10" pointer-events="none"/>
        <path d="M 440 122 L 440 122" fill="none" stroke="#000"
              stroke-miterlimit="10" pointer-events="none"/>
        <path d="M 440 115 L 440 115" fill="none" stroke="#000"
              stroke-miterlimit="10" pointer-events="none"/>
        <path d="M 440 108 L 440 108" fill="none" stroke="#000"
              stroke-miterlimit="10" pointer-events="none"/>
        <path d="M 447 100 L 447 100" fill="none" stroke="#000"
              stroke-miterlimit="10" pointer-events="none"/>
        <path d="M 454 100 L 454 100" fill="none" stroke="#000"
              stroke-miterlimit="10" pointer-events="none"/>
        <path d="M 461 100 L 461 100" fill="none" stroke="#000"
              stroke-miterlimit="10" pointer-events="none"/>
        <path d="M 468 100 L 468 100" fill="none" stroke="#000"
              stroke-miterlimit="10" pointer-events="none"/>
        <path d="M 475 100 L 475 100" fill="none" stroke="#000"
              stroke-miterlimit="10" pointer-events="none"/>
        <path d="M 482 100 L 482 100" fill="none" stroke="#000"
              stroke-miterlimit="10" pointer-events="none"/>
        <rect x="460" y="155" width="11" height="7" fill-opacity="0"
              fill="#dae2f2" stroke="none" pointer-events="none"/>
        <g fill="#000000" font-family="Arial,Helvetica" font-weight="bold"
           text-anchor="middle" font-size="6px">
            <text x="465.5" y="160.5">
                U56
            </text>
        </g>
        <rect x="455" y="120" width="19.5" height="6.5" fill-opacity="0"
              fill="#dae2f2" stroke="none" pointer-events="none"/>
        <g fill="#000000" font-family="Arial,Helvetica" font-weight="bold"
           text-anchor="middle" font-size="6px">
            <text x="464.75" y="125.25">
                Combel
            </text>
        </g>
        <rect x="364.5" y="109.5" width="1" height="1" fill="#000000"
              stroke="none"
              transform="translate(0,125)scale(1,-1)translate(0,-125)rotate(-270,365,125)"
              pointer-events="none"/>
        <rect x="364.5" y="139.5" width="1" height="1" fill="#000000"
              stroke="none"
              transform="translate(0,125)scale(1,-1)translate(0,-125)rotate(-270,365,125)"
              pointer-events="none"/>
        <path d="M 365 110.5 L 365 115.5" fill="#000000" stroke="#000000"
              stroke-linecap="square" stroke-miterlimit="10"
              transform="translate(0,125)scale(1,-1)translate(0,-125)rotate(-270,365,125)"
              pointer-events="none"/>
        <path d="M 365 134.5 L 365 139.5" fill="#000000" stroke="#000000"
              stroke-linecap="square" stroke-miterlimit="10"
              transform="translate(0,125)scale(1,-1)translate(0,-125)rotate(-270,365,125)"
              pointer-events="none"/>
        <path d="M 361.5 116 C 368.2 115.91 368.5 116 368.5 116 L 368.5 134 L 361.5 134 Z"
              fill="#ffffff" stroke="#000000" stroke-linejoin="round"
              stroke-linecap="round" stroke-miterlimit="10"
              transform="translate(0,125)scale(1,-1)translate(0,-125)rotate(-270,365,125)"
              pointer-events="none"/>
        <rect x="360" y="130" width="10.5" height="6.5" fill-opacity="0"
              fill="#dae2f2" stroke="none" pointer-events="none"/>
        <g fill="#000000" font-family="Arial,Helvetica" font-weight="bold"
           text-anchor="middle" font-size="6px">
            <text x="365.25" y="135.25">
                R21
            </text>
        </g>
        <path d="M 440 125 L 382.24 125" fill="none" stroke="#000000"
              stroke-miterlimit="10" pointer-events="none"/>
        <path d="M 384.12 123.5 L 381.12 125 L 384.12 126.5" fill="none"
              stroke="#000000" stroke-miterlimit="10" pointer-events="none"/>
        <g fill="#000000" font-family="Arial,Helvetica" text-anchor="middle"
           font-size="5.5px">
            <rect fill="#FFFFFF" stroke="none" x="391" y="116" width="48"
                  height="7" stroke-width="0"/>
            <text x="415" y="121.75">
                #191 (CPUCLKO)
            </text>
        </g>
        <rect x="289.5" y="134.5" width="1" height="1" fill="#000000"
              stroke="none"
              transform="translate(0,150)scale(1,-1)translate(0,-150)rotate(-180,290,150)"
              pointer-events="none"/>
        <rect x="289.5" y="164.5" width="1" height="1" fill="#000000"
              stroke="none"
              transform="translate(0,150)scale(1,-1)translate(0,-150)rotate(-180,290,150)"
              pointer-events="none"/>
        <path d="M 290 135.5 L 290 140.5" fill="#000000" stroke="#000000"
              stroke-linecap="square" stroke-miterlimit="10"
              transform="translate(0,150)scale(1,-1)translate(0,-150)rotate(-180,290,150)"
              pointer-events="none"/>
        <path d="M 290 159.5 L 290 164.5" fill="#000000" stroke="#000000"
              stroke-linecap="square" stroke-miterlimit="10"
              transform="translate(0,150)scale(1,-1)translate(0,-150)rotate(-180,290,150)"
              pointer-events="none"/>
        <path d="M 286.5 141 C 293.2 140.91 293.5 141 293.5 141 L 293.5 159 L 286.5 159 Z"
              fill="#ffffff" stroke="#000000" stroke-linejoin="round"
              stroke-linecap="round" stroke-miterlimit="10"
              transform="translate(0,150)scale(1,-1)translate(0,-150)rotate(-180,290,150)"
              pointer-events="none"/>
        <rect x="295" y="160" width="13.5" height="6.5" fill-opacity="0"
              fill="#dae2f2" stroke="none" pointer-events="none"/>
        <g fill="#000000" font-family="Arial,Helvetica" font-weight="bold"
           text-anchor="middle" font-size="6px">
            <text x="301.75" y="165.25">
                R217
            </text>
        </g>
        <rect x="269.5" y="169.5" width="1" height="1" fill="#000000"
              stroke="none"
              transform="translate(0,185)scale(1,-1)translate(0,-185)rotate(-180,270,185)"
              pointer-events="none"/>
        <rect x="269.5" y="199.5" width="1" height="1" fill="#000000"
              stroke="none"
              transform="translate(0,185)scale(1,-1)translate(0,-185)rotate(-180,270,185)"
              pointer-events="none"/>
        <path d="M 270 170.5 L 270 175.5" fill="#000000" stroke="#000000"
              stroke-linecap="square" stroke-miterlimit="10"
              transform="translate(0,185)scale(1,-1)translate(0,-185)rotate(-180,270,185)"
              pointer-events="none"/>
        <path d="M 270 194.5 L 270 199.5" fill="#000000" stroke="#000000"
              stroke-linecap="square" stroke-miterlimit="10"
              transform="translate(0,185)scale(1,-1)translate(0,-185)rotate(-180,270,185)"
              pointer-events="none"/>
        <path d="M 266.5 176 C 273.2 175.91 273.5 176 273.5 176 L 273.5 194 L 266.5 194 Z"
              fill="#ffffff" stroke="#000000" stroke-linejoin="round"
              stroke-linecap="round" stroke-miterlimit="10"
              transform="translate(0,185)scale(1,-1)translate(0,-185)rotate(-180,270,185)"
              pointer-events="none"/>
        <rect x="275" y="190" width="13.5" height="6.5" fill-opacity="0"
              fill="#dae2f2" stroke="none" pointer-events="none"/>
        <g fill="#000000" font-family="Arial,Helvetica" font-weight="bold"
           text-anchor="middle" font-size="6px">
            <text x="281.75" y="195.25">
                R222
            </text>
        </g>
        <path d="M 350 125 L 290 125 L 290 135" fill="none" stroke="#000000"
              stroke-miterlimit="10" pointer-events="none"/>
        <rect x="209.5" y="169.5" width="1" height="1" fill="#000000"
              stroke="none"
              transform="translate(0,185)scale(1,-1)translate(0,-185)rotate(-180,210,185)"
              pointer-events="none"/>
        <rect x="209.5" y="199.5" width="1" height="1" fill="#000000"
              stroke="none"
              transform="translate(0,185)scale(1,-1)translate(0,-185)rotate(-180,210,185)"
              pointer-events="none"/>
        <path d="M 210 170.5 L 210 175.5" fill="#000000" stroke="#000000"
              stroke-linecap="square" stroke-miterlimit="10"
              transform="translate(0,185)scale(1,-1)translate(0,-185)rotate(-180,210,185)"
              pointer-events="none"/>
        <path d="M 210 194.5 L 210 199.5" fill="#000000" stroke="#000000"
              stroke-linecap="square" stroke-miterlimit="10"
              transform="translate(0,185)scale(1,-1)translate(0,-185)rotate(-180,210,185)"
              pointer-events="none"/>
        <path d="M 206.5 176 C 213.2 175.91 213.5 176 213.5 176 L 213.5 194 L 206.5 194 Z"
              fill="#ffffff" stroke="#000000" stroke-linejoin="round"
              stroke-linecap="round" stroke-miterlimit="10"
              transform="translate(0,185)scale(1,-1)translate(0,-185)rotate(-180,210,185)"
              pointer-events="none"/>
        <rect x="215" y="190" width="13.5" height="6.5" fill-opacity="0"
              fill="#dae2f2" stroke="none" pointer-events="none"/>
        <g fill="#000000" font-family="Arial,Helvetica" font-weight="bold"
           text-anchor="middle" font-size="6px">
            <text x="221.75" y="195.25">
                R216
            </text>
        </g>
        <rect x="125" y="75" width="85" height="10" fill="#6ccefb" stroke="#000"
              pointer-events="none"/>
        <path d="M 210 76.4 L 210 76.4" fill="none" stroke="#000"
              stroke-miterlimit="10" pointer-events="none"/>
        <path d="M 210 77.8 L 210 77.8" fill="none" stroke="#000"
              stroke-miterlimit="10" pointer-events="none"/>
        <path d="M 210 79.2 L 210 79.2" fill="none" stroke="#000"
              stroke-miterlimit="10" pointer-events="none"/>
        <path d="M 210 80.6 L 210 80.6" fill="none" stroke="#000"
              stroke-miterlimit="10" pointer-events="none"/>
        <path d="M 210 82 L 210 82" fill="none" stroke="#000"
              stroke-miterlimit="10" pointer-events="none"/>
        <path d="M 210 83.4 L 210 83.4" fill="none" stroke="#000"
              stroke-miterlimit="10" pointer-events="none"/>
        <path d="M 198.1 85 L 198.1 85" fill="none" stroke="#000"
              stroke-miterlimit="10" pointer-events="none"/>
        <path d="M 186.2 85 L 186.2 85" fill="none" stroke="#000"
              stroke-miterlimit="10" pointer-events="none"/>
        <path d="M 174.3 85 L 174.3 85" fill="none" stroke="#000"
              stroke-miterlimit="10" pointer-events="none"/>
        <path d="M 162.4 85 L 162.4 85" fill="none" stroke="#000"
              stroke-miterlimit="10" pointer-events="none"/>
        <path d="M 150.5 85 L 150.5 85" fill="none" stroke="#000"
              stroke-miterlimit="10" pointer-events="none"/>
        <path d="M 138.6 85 L 138.6 85" fill="none" stroke="#000"
              stroke-miterlimit="10" pointer-events="none"/>
        <path d="M 125 83.6 L 125 83.6" fill="none" stroke="#000"
              stroke-miterlimit="10" pointer-events="none"/>
        <path d="M 125 82.2 L 125 82.2" fill="none" stroke="#000"
              stroke-miterlimit="10" pointer-events="none"/>
        <path d="M 125 80.8 L 125 80.8" fill="none" stroke="#000"
              stroke-miterlimit="10" pointer-events="none"/>
        <path d="M 125 79.4 L 125 79.4" fill="none" stroke="#000"
              stroke-miterlimit="10" pointer-events="none"/>
        <path d="M 125 78 L 125 78" fill="none" stroke="#000"
              stroke-miterlimit="10" pointer-events="none"/>
        <path d="M 125 76.6 L 125 76.6" fill="none" stroke="#000"
              stroke-miterlimit="10" pointer-events="none"/>
        <path d="M 136.9 75 L 136.9 75" fill="none" stroke="#000"
              stroke-miterlimit="10" pointer-events="none"/>
        <path d="M 148.8 75 L 148.8 75" fill="none" stroke="#000"
              stroke-miterlimit="10" pointer-events="none"/>
        <path d="M 160.7 75 L 160.7 75" fill="none" stroke="#000"
              stroke-miterlimit="10" pointer-events="none"/>
        <path d="M 172.6 75 L 172.6 75" fill="none" stroke="#000"
              stroke-miterlimit="10" pointer-events="none"/>
        <path d="M 184.5 75 L 184.5 75" fill="none" stroke="#000"
              stroke-miterlimit="10" pointer-events="none"/>
        <path d="M 196.4 75 L 196.4 75" fill="none" stroke="#000"
              stroke-miterlimit="10" pointer-events="none"/>
        <rect x="160" y="90" width="9.5" height="7" fill-opacity="0"
              fill="#dae2f2" stroke="none" pointer-events="none"/>
        <g fill="#000000" font-family="Arial,Helvetica" font-weight="bold"
           text-anchor="middle" font-size="6px">
            <text x="164.75" y="95.5">
                J16
            </text>
        </g>
        <rect x="150" y="75" width="37" height="6.5" fill-opacity="0"
              fill="#dae2f2" stroke="none" pointer-events="none"/>
        <g fill="#000000" font-family="Arial,Helvetica" font-weight="bold"
           text-anchor="middle" font-size="6px">
            <text x="168.5" y="80.25">
                Expansion slot
            </text>
        </g>
        <path d="M 210 170 L 210 135 Q 210 130 205 130 L 183 130 Q 178 130 178 125 L 178 87.24"
              fill="none" stroke="#000000" stroke-miterlimit="10"
              pointer-events="none"/>
        <path d="M 179.5 89.12 L 178 86.12 L 176.5 89.12" fill="none"
              stroke="#000000" stroke-miterlimit="10" pointer-events="none"/>
        <g fill="#000000" font-family="Arial,Helvetica" text-anchor="middle"
           font-size="5.5px">
            <rect fill="#FFFFFF" stroke="none" x="184" y="86" width="44"
                  height="7" stroke-width="0"/>
            <text x="206" y="91.75">
                #23 (CPUCLKC)
            </text>
        </g>
        <rect x="45" y="140" width="55" height="10" fill="#6ccefb" stroke="#000"
              pointer-events="none"/>
        <path d="M 100 141.4 L 100 141.4" fill="none" stroke="#000"
              stroke-miterlimit="10" pointer-events="none"/>
        <path d="M 100 142.8 L 100 142.8" fill="none" stroke="#000"
              stroke-miterlimit="10" pointer-events="none"/>
        <path d="M 100 144.2 L 100 144.2" fill="none" stroke="#000"
              stroke-miterlimit="10" pointer-events="none"/>
        <path d="M 100 145.6 L 100 145.6" fill="none" stroke="#000"
              stroke-miterlimit="10" pointer-events="none"/>
        <path d="M 100 147 L 100 147" fill="none" stroke="#000"
              stroke-miterlimit="10" pointer-events="none"/>
        <path d="M 100 148.4 L 100 148.4" fill="none" stroke="#000"
              stroke-miterlimit="10" pointer-events="none"/>
        <path d="M 92.3 150 L 92.3 150" fill="none" stroke="#000"
              stroke-miterlimit="10" pointer-events="none"/>
        <path d="M 84.6 150 L 84.6 150" fill="none" stroke="#000"
              stroke-miterlimit="10" pointer-events="none"/>
        <path d="M 76.9 150 L 76.9 150" fill="none" stroke="#000"
              stroke-miterlimit="10" pointer-events="none"/>
        <path d="M 69.2 150 L 69.2 150" fill="none" stroke="#000"
              stroke-miterlimit="10" pointer-events="none"/>
        <path d="M 61.5 150 L 61.5 150" fill="none" stroke="#000"
              stroke-miterlimit="10" pointer-events="none"/>
        <path d="M 53.8 150 L 53.8 150" fill="none" stroke="#000"
              stroke-miterlimit="10" pointer-events="none"/>
        <path d="M 45 148.6 L 45 148.6" fill="none" stroke="#000"
              stroke-miterlimit="10" pointer-events="none"/>
        <path d="M 45 147.2 L 45 147.2" fill="none" stroke="#000"
              stroke-miterlimit="10" pointer-events="none"/>
        <path d="M 45 145.8 L 45 145.8" fill="none" stroke="#000"
              stroke-miterlimit="10" pointer-events="none"/>
        <path d="M 45 144.4 L 45 144.4" fill="none" stroke="#000"
              stroke-miterlimit="10" pointer-events="none"/>
        <path d="M 45 143 L 45 143" fill="none" stroke="#000"
              stroke-miterlimit="10" pointer-events="none"/>
        <path d="M 45 141.6 L 45 141.6" fill="none" stroke="#000"
              stroke-miterlimit="10" pointer-events="none"/>
        <path d="M 52.7 140 L 52.7 140" fill="none" stroke="#000"
              stroke-miterlimit="10" pointer-events="none"/>
        <path d="M 60.4 140 L 60.4 140" fill="none" stroke="#000"
              stroke-miterlimit="10" pointer-events="none"/>
        <path d="M 68.1 140 L 68.1 140" fill="none" stroke="#000"
              stroke-miterlimit="10" pointer-events="none"/>
        <path d="M 75.8 140 L 75.8 140" fill="none" stroke="#000"
              stroke-miterlimit="10" pointer-events="none"/>
        <path d="M 83.5 140 L 83.5 140" fill="none" stroke="#000"
              stroke-miterlimit="10" pointer-events="none"/>
        <path d="M 91.2 140 L 91.2 140" fill="none" stroke="#000"
              stroke-miterlimit="10" pointer-events="none"/>
        <rect x="65" y="155" width="9" height="6.5" fill-opacity="0"
              fill="#dae2f2" stroke="none" pointer-events="none"/>
        <g fill="#000000" font-family="Arial,Helvetica" font-weight="bold"
           text-anchor="middle" font-size="6px">
            <text x="69.5" y="160.25">
                J20
            </text>
        </g>
        <rect x="55" y="140" width="37" height="6.5" fill-opacity="0"
              fill="#dae2f2" stroke="none" pointer-events="none"/>
        <g fill="#000000" font-family="Arial,Helvetica" font-weight="bold"
           text-anchor="middle" font-size="6px">
            <text x="73.5" y="145.25">
                Expansion slot
            </text>
        </g>
        <rect x="150" y="0" width="50" height="50" fill="#6ccefb" stroke="#000"
              stroke-width="1.5" pointer-events="none"/>
        <path d="M 200 7 L 200 7" fill="none" stroke="#000"
              stroke-miterlimit="10" pointer-events="none"/>
        <path d="M 200 14 L 200 14" fill="none" stroke="#000"
              stroke-miterlimit="10" pointer-events="none"/>
        <path d="M 200 21 L 200 21" fill="none" stroke="#000"
              stroke-miterlimit="10" pointer-events="none"/>
        <path d="M 200 28 L 200 28" fill="none" stroke="#000"
              stroke-miterlimit="10" pointer-events="none"/>
        <path d="M 200 35 L 200 35" fill="none" stroke="#000"
              stroke-miterlimit="10" pointer-events="none"/>
        <path d="M 200 42 L 200 42" fill="none" stroke="#000"
              stroke-miterlimit="10" pointer-events="none"/>
        <path d="M 193 50 L 193 50" fill="none" stroke="#000"
              stroke-miterlimit="10" pointer-events="none"/>
        <path d="M 186 50 L 186 50" fill="none" stroke="#000"
              stroke-miterlimit="10" pointer-events="none"/>
        <path d="M 179 50 L 179 50" fill="none" stroke="#000"
              stroke-miterlimit="10" pointer-events="none"/>
        <path d="M 172 50 L 172 50" fill="none" stroke="#000"
              stroke-miterlimit="10" pointer-events="none"/>
        <path d="M 165 50 L 165 50" fill="none" stroke="#000"
              stroke-miterlimit="10" pointer-events="none"/>
        <path d="M 158 50 L 158 50" fill="none" stroke="#000"
              stroke-miterlimit="10" pointer-events="none"/>
        <path d="M 150 43 L 150 43" fill="none" stroke="#000"
              stroke-miterlimit="10" pointer-events="none"/>
        <path d="M 150 36 L 150 36" fill="none" stroke="#000"
              stroke-miterlimit="10" pointer-events="none"/>
        <path d="M 150 29 L 150 29" fill="none" stroke="#000"
              stroke-miterlimit="10" pointer-events="none"/>
        <path d="M 150 22 L 150 22" fill="none" stroke="#000"
              stroke-miterlimit="10" pointer-events="none"/>
        <path d="M 150 15 L 150 15" fill="none" stroke="#000"
              stroke-miterlimit="10" pointer-events="none"/>
        <path d="M 150 8 L 150 8" fill="none" stroke="#000"
              stroke-miterlimit="10" pointer-events="none"/>
        <path d="M 157 0 L 157 0" fill="none" stroke="#000"
              stroke-miterlimit="10" pointer-events="none"/>
        <path d="M 164 0 L 164 0" fill="none" stroke="#000"
              stroke-miterlimit="10" pointer-events="none"/>
        <path d="M 171 0 L 171 0" fill="none" stroke="#000"
              stroke-miterlimit="10" pointer-events="none"/>
        <path d="M 178 0 L 178 0" fill="none" stroke="#000"
              stroke-miterlimit="10" pointer-events="none"/>
        <path d="M 185 0 L 185 0" fill="none" stroke="#000"
              stroke-miterlimit="10" pointer-events="none"/>
        <path d="M 192 0 L 192 0" fill="none" stroke="#000"
              stroke-miterlimit="10" pointer-events="none"/>
        <rect x="170" y="55" width="10.5" height="6.5" fill-opacity="0"
              fill="#dae2f2" stroke="none" pointer-events="none"/>
        <g fill="#000000" font-family="Arial,Helvetica" font-weight="bold"
           text-anchor="middle" font-size="6px">
            <text x="175.25" y="60.25">
                U33
            </text>
        </g>
        <rect x="170" y="20" width="11.5" height="6.5" fill-opacity="0"
              fill="#dae2f2" stroke="none" pointer-events="none"/>
        <g fill="#000000" font-family="Arial,Helvetica" font-weight="bold"
           text-anchor="middle" font-size="6px">
            <text x="175.75" y="25.25">
                FPU
            </text>
        </g>
        <rect x="675" y="50" width="50" height="50" fill="#6ccefb" stroke="#000"
              stroke-width="1.5" pointer-events="none"/>
        <path d="M 725 57 L 725 57" fill="none" stroke="#000"
              stroke-miterlimit="10" pointer-events="none"/>
        <path d="M 725 64 L 725 64" fill="none" stroke="#000"
              stroke-miterlimit="10" pointer-events="none"/>
        <path d="M 725 71 L 725 71" fill="none" stroke="#000"
              stroke-miterlimit="10" pointer-events="none"/>
        <path d="M 725 78 L 725 78" fill="none" stroke="#000"
              stroke-miterlimit="10" pointer-events="none"/>
        <path d="M 725 85 L 725 85" fill="none" stroke="#000"
              stroke-miterlimit="10" pointer-events="none"/>
        <path d="M 725 92 L 725 92" fill="none" stroke="#000"
              stroke-miterlimit="10" pointer-events="none"/>
        <path d="M 718 100 L 718 100" fill="none" stroke="#000"
              stroke-miterlimit="10" pointer-events="none"/>
        <path d="M 711 100 L 711 100" fill="none" stroke="#000"
              stroke-miterlimit="10" pointer-events="none"/>
        <path d="M 704 100 L 704 100" fill="none" stroke="#000"
              stroke-miterlimit="10" pointer-events="none"/>
        <path d="M 697 100 L 697 100" fill="none" stroke="#000"
              stroke-miterlimit="10" pointer-events="none"/>
        <path d="M 690 100 L 690 100" fill="none" stroke="#000"
              stroke-miterlimit="10" pointer-events="none"/>
        <path d="M 683 100 L 683 100" fill="none" stroke="#000"
              stroke-miterlimit="10" pointer-events="none"/>
        <path d="M 675 93 L 675 93" fill="none" stroke="#000"
              stroke-miterlimit="10" pointer-events="none"/>
        <path d="M 675 86 L 675 86" fill="none" stroke="#000"
              stroke-miterlimit="10" pointer-events="none"/>
        <path d="M 675 79 L 675 79" fill="none" stroke="#000"
              stroke-miterlimit="10" pointer-events="none"/>
        <path d="M 675 72 L 675 72" fill="none" stroke="#000"
              stroke-miterlimit="10" pointer-events="none"/>
        <path d="M 675 65 L 675 65" fill="none" stroke="#000"
              stroke-miterlimit="10" pointer-events="none"/>
        <path d="M 675 58 L 675 58" fill="none" stroke="#000"
              stroke-miterlimit="10" pointer-events="none"/>
        <path d="M 682 50 L 682 50" fill="none" stroke="#000"
              stroke-miterlimit="10" pointer-events="none"/>
        <path d="M 689 50 L 689 50" fill="none" stroke="#000"
              stroke-miterlimit="10" pointer-events="none"/>
        <path d="M 696 50 L 696 50" fill="none" stroke="#000"
              stroke-miterlimit="10" pointer-events="none"/>
        <path d="M 703 50 L 703 50" fill="none" stroke="#000"
              stroke-miterlimit="10" pointer-events="none"/>
        <path d="M 710 50 L 710 50" fill="none" stroke="#000"
              stroke-miterlimit="10" pointer-events="none"/>
        <path d="M 717 50 L 717 50" fill="none" stroke="#000"
              stroke-miterlimit="10" pointer-events="none"/>
        <rect x="695" y="105" width="10.5" height="6.5" fill-opacity="0"
              fill="#dae2f2" stroke="none" pointer-events="none"/>
        <g fill="#000000" font-family="Arial,Helvetica" font-weight="bold"
           text-anchor="middle" font-size="6px">
            <text x="700.25" y="110.25">
                U36
            </text>
        </g>
        <rect x="690" y="70" width="16.5" height="6.5" fill-opacity="0"
              fill="#dae2f2" stroke="none" pointer-events="none"/>
        <g fill="#000000" font-family="Arial,Helvetica" font-weight="bold"
           text-anchor="middle" font-size="6px">
            <text x="698.25" y="75.25">
                SDMA
            </text>
        </g>
        <path d="M 240 60 L 672.76 60" fill="none" stroke="#000000"
              stroke-miterlimit="10" pointer-events="none"/>
        <path d="M 670.88 61.5 L 673.88 60 L 670.88 58.5" fill="none"
              stroke="#000000" stroke-miterlimit="10" pointer-events="none"/>
        <g fill="#000000" font-family="Arial,Helvetica" text-anchor="middle"
           font-size="5.5px">
            <rect fill="#FFFFFF" stroke="none" x="628" y="51" width="47"
                  height="7" stroke-width="0"/>
            <text x="651" y="56.75">
                #110 (CPUCLKA)
            </text>
        </g>
        <rect x="115" y="100" width="50" height="50" fill="#6ccefb"
              stroke="#000" stroke-width="1.5" pointer-events="none"/>
        <path d="M 165 107 L 165 107" fill="none" stroke="#000"
              stroke-miterlimit="10" pointer-events="none"/>
        <path d="M 165 114 L 165 114" fill="none" stroke="#000"
              stroke-miterlimit="10" pointer-events="none"/>
        <path d="M 165 121 L 165 121" fill="none" stroke="#000"
              stroke-miterlimit="10" pointer-events="none"/>
        <path d="M 165 128 L 165 128" fill="none" stroke="#000"
              stroke-miterlimit="10" pointer-events="none"/>
        <path d="M 165 135 L 165 135" fill="none" stroke="#000"
              stroke-miterlimit="10" pointer-events="none"/>
        <path d="M 165 142 L 165 142" fill="none" stroke="#000"
              stroke-miterlimit="10" pointer-events="none"/>
        <path d="M 158 150 L 158 150" fill="none" stroke="#000"
              stroke-miterlimit="10" pointer-events="none"/>
        <path d="M 151 150 L 151 150" fill="none" stroke="#000"
              stroke-miterlimit="10" pointer-events="none"/>
        <path d="M 144 150 L 144 150" fill="none" stroke="#000"
              stroke-miterlimit="10" pointer-events="none"/>
        <path d="M 137 150 L 137 150" fill="none" stroke="#000"
              stroke-miterlimit="10" pointer-events="none"/>
        <path d="M 130 150 L 130 150" fill="none" stroke="#000"
              stroke-miterlimit="10" pointer-events="none"/>
        <path d="M 123 150 L 123 150" fill="none" stroke="#000"
              stroke-miterlimit="10" pointer-events="none"/>
        <path d="M 115 143 L 115 143" fill="none" stroke="#000"
              stroke-miterlimit="10" pointer-events="none"/>
        <path d="M 115 136 L 115 136" fill="none" stroke="#000"
              stroke-miterlimit="10" pointer-events="none"/>
        <path d="M 115 129 L 115 129" fill="none" stroke="#000"
              stroke-miterlimit="10" pointer-events="none"/>
        <path d="M 115 122 L 115 122" fill="none" stroke="#000"
              stroke-miterlimit="10" pointer-events="none"/>
        <path d="M 115 115 L 115 115" fill="none" stroke="#000"
              stroke-miterlimit="10" pointer-events="none"/>
        <path d="M 115 108 L 115 108" fill="none" stroke="#000"
              stroke-miterlimit="10" pointer-events="none"/>
        <path d="M 122 100 L 122 100" fill="none" stroke="#000"
              stroke-miterlimit="10" pointer-events="none"/>
        <path d="M 129 100 L 129 100" fill="none" stroke="#000"
              stroke-miterlimit="10" pointer-events="none"/>
        <path d="M 136 100 L 136 100" fill="none" stroke="#000"
              stroke-miterlimit="10" pointer-events="none"/>
        <path d="M 143 100 L 143 100" fill="none" stroke="#000"
              stroke-miterlimit="10" pointer-events="none"/>
        <path d="M 150 100 L 150 100" fill="none" stroke="#000"
              stroke-miterlimit="10" pointer-events="none"/>
        <path d="M 157 100 L 157 100" fill="none" stroke="#000"
              stroke-miterlimit="10" pointer-events="none"/>
        <rect x="135" y="155" width="10.5" height="6.5" fill-opacity="0"
              fill="#dae2f2" stroke="none" pointer-events="none"/>
        <g fill="#000000" font-family="Arial,Helvetica" font-weight="bold"
           text-anchor="middle" font-size="6px">
            <text x="140.25" y="160.25">
                U55
            </text>
        </g>
        <rect x="130" y="125" width="12" height="6.5" fill-opacity="0"
              fill="#dae2f2" stroke="none" pointer-events="none"/>
        <g fill="#000000" font-family="Arial,Helvetica" font-weight="bold"
           text-anchor="middle" font-size="6px">
            <text x="136" y="130.25">
                CPU
            </text>
        </g>
        <path d="M 202.24 25 L 235 25 Q 240 25 240 30 L 240 200" fill="none"
              stroke="#000000" stroke-miterlimit="10" pointer-events="none"/>
        <path d="M 204.12 23.5 L 201.12 25 L 204.12 26.5" fill="none"
              stroke="#000000" stroke-miterlimit="10" pointer-events="none"/>
        <g fill="#000000" font-family="Arial,Helvetica" text-anchor="middle"
           font-size="5.5px">
            <rect fill="#FFFFFF" stroke="none" x="207" y="16" width="44"
                  height="7" stroke-width="0"/>
            <text x="229" y="21.75">
                #11 (CPUCLKA)
            </text>
        </g>
        <path d="M 270 170 L 270 165 L 290 165" fill="none" stroke="#000000"
              stroke-miterlimit="10" pointer-events="none"/>
        <path d="M 270 200 L 270 202.5 Q 270 205 265 205 L 160 205 Q 155 205 155 200 L 155 152.24"
              fill="none" stroke="#000000" stroke-miterlimit="10"
              pointer-events="none"/>
        <path d="M 156.5 154.12 L 155 151.12 L 153.5 154.12" fill="none"
              stroke="#000000" stroke-miterlimit="10" pointer-events="none"/>
        <g fill="#000000" font-family="Arial,Helvetica" text-anchor="middle"
           font-size="5.5px">
            <rect fill="#FFFFFF" stroke="none" x="160" y="151" width="41"
                  height="7" stroke-width="0"/>
            <text x="180" y="156.75">
                #6 (CPUCLKB)
            </text>
        </g>
        <path d="M 210 200 L 260 200 L 260 165 L 269 165" fill="none"
              stroke="#000000" stroke-miterlimit="10" pointer-events="none"/>
        <ellipse cx="270" cy="165" rx="1" ry="1" fill="#000000" stroke="#000000"
                 pointer-events="none"/>
    </g>
</svg>